<svg xmlns:inkscape="http://www.inkscape.org/namespaces/inkscape" xmlns:sodipodi="http://sodipodi.sourceforge.net/DTD/sodipodi-0.dtd" xmlns="http://www.w3.org/2000/svg" xmlns:svg="http://www.w3.org/2000/svg" version="1.1" id="svg2" width="586.54932" height="487.05066" viewBox="0 0 586.54932 487.05066" sodipodi:docname="logo-woo.ai" style="&#10;    width: 128px;&#10;    height: 128px;&#10;">
  <defs id="defs6">
    <clipPath clipPathUnits="userSpaceOnUse" id="clipPath16">
      <path d="M 0,365.289 H 439.912 V 0 H 0 Z" id="path14"/>
    </clipPath>
  </defs>
  <sodipodi:namedview id="namedview4" pagecolor="#ffffff" bordercolor="#000000" borderopacity="0.25" inkscape:showpageshadow="2" inkscape:pageopacity="0.0" inkscape:pagecheckerboard="0" inkscape:deskcolor="#d1d1d1"/>
  <g id="g8" inkscape:groupmode="layer" inkscape:label="logo-woo" transform="matrix(1.3333333,0,0,-1.3333333,0,487.05067)">
    <g id="g10">
      <g id="g12" clip-path="url(#clipPath16)">
        <g id="g18" transform="translate(74.4914,248.5298)">
          <path d="M 0,0 C 2.48,0.352 2.867,2.021 1.397,5.187 0.913,3.39 0.473,1.758 0,0 m 1.706,-40.25 c 0.629,6.005 0.629,6.005 -1.463,6.293 0,-0.36 -0.073,-0.728 0.013,-1.053 0.461,-1.753 0.963,-3.495 1.45,-5.24 m 305.164,-81.197 c 0.002,-0.178 0.006,-0.356 0.009,-0.534 h 22.15 c -0.003,0.178 -0.007,0.356 -0.01,0.534 z m -13.832,-1.082 c 0.002,0.237 0.003,0.475 0.005,0.713 h -25.277 c 0.002,-0.238 0.004,-0.476 0.006,-0.713 z m 28.214,25.879 c -4.248,-4.532 -10.263,-5.832 -15.227,-9.958 h 15.828 c 0.249,0.141 0.498,0.281 0.747,0.422 -4.697,2.818 0.003,6.051 -1.348,9.536 M 281.953,22.812 c 0.653,6.286 -3.016,10.385 -7.569,8.525 -3.553,-1.451 -4.591,-5.074 -6.326,-8.525 z M 279.032,-90.46 c -0.646,-3.473 -0.209,-6.366 1.568,-8.985 1.002,-1.476 1.009,-2.611 -0.519,-3.764 -1.094,-0.826 -2.023,-1.903 -1.725,-3.502 h 18.166 c -7.762,3.775 -12.089,10.342 -17.49,16.251 m 25.37,-14.982 c 1.257,2.101 2.961,2.791 4.567,3.649 3.645,1.95 7.58,3.455 10.505,6.545 1.514,1.601 1.501,4.333 0.012,6.321 -1.287,1.718 -2.901,0.77 -4.274,0.264 -5.768,-2.123 -10.927,-9.889 -10.81,-16.779 m -152.793,-58.831 c -6.277,0 -12.553,-0.022 -18.83,0.015 -1.546,0.009 -2.746,-0.147 -2.714,-2.14 0.031,-1.91 1.565,-1.657 2.584,-1.7 2.298,-0.097 4.609,0.157 6.914,0.162 10.152,0.023 20.305,0.214 30.457,-0.163 1.247,-0.046 3.192,-0.587 3.234,1.838 0.042,2.348 -1.659,1.981 -3.093,1.984 -6.184,0.012 -12.368,0.005 -18.552,0.004 m 149.636,57.597 c -0.357,6.966 -3.562,12.526 -7.551,17.652 -2.258,2.902 -5.311,4.767 -9.18,5.006 -1.646,0.101 -2.577,-0.713 -3.33,-1.97 -0.736,-1.23 -0.81,-2.496 0.126,-3.607 5.68,-6.735 11.108,-13.773 19.935,-17.081 m 5.598,-12.251 h 22.044 v 9.633 h -22.044 z m -39.078,-0.087 h 25.191 v 9.697 h -25.191 z m 36.438,-42.594 v 52.197 c -2.944,0.294 -5.663,0.331 -8.471,0.045 v -52.242 z m 19.951,241.057 c 0.687,8.134 -1.934,14.48 -8.856,18.31 -5.733,3.173 -12.097,4.339 -17.838,0.262 -6.178,-4.385 -9.451,-10.469 -7.729,-18.572 z m 4.838,-204.263 h -22.261 v -36.784 h 22.261 z m -61.13,-36.752 h 25.167 v 36.521 h -25.167 z m -285.706,59.511 c -1.191,0.067 -2.289,0.097 -3.381,0.199 -1.307,0.122 -2.29,0.736 -2.643,2.071 -0.195,0.736 -0.262,1.548 0.608,1.905 0.801,0.329 1.177,-0.245 1.385,-0.925 0.35,-1.146 1.302,-1.177 2.238,-1.204 1.571,-0.046 3.143,-0.088 4.715,-0.088 4.095,10e-4 4.558,0.573 4.093,4.724 -0.185,1.648 -0.842,2.52 -2.664,2.337 -2.206,-0.221 -4.43,-0.264 -6.645,-0.41 -5.74,-0.377 -6.078,-0.075 -6.266,5.71 -0.012,0.369 0,0.74 0.009,1.11 0.046,2.085 1.08,3.275 3.181,3.465 1.549,0.14 3.1,0.25 4.512,0.363 0.9,1.002 0.098,3.017 1.73,3 1.853,-0.019 0.459,-2.047 1.587,-3.175 0.948,0 2.227,0.036 3.504,-0.009 1.505,-0.053 2.664,-0.698 3.255,-2.157 0.226,-0.558 0.228,-1.142 -0.289,-1.502 -0.556,-0.386 -1.114,-0.137 -1.391,0.415 -0.741,1.479 -2.078,1.315 -3.368,1.315 -2.03,0.002 -4.059,-0.01 -6.089,-0.002 -4.641,0.021 -5.127,-0.609 -4.299,-5.115 0.237,-1.289 0.764,-1.701 2.027,-1.599 3.131,0.254 6.277,0.334 9.402,0.646 1.898,0.189 2.854,-0.534 3.547,-2.27 0.773,-1.939 0.005,-3.986 0.666,-6.248 3.645,2.398 7.524,3.33 11.79,3.237 0.523,5.656 -0.124,10.87 -2.488,15.839 -1.313,2.759 -3.239,4.91 -5.953,6.359 -6.174,3.295 -12.694,3.976 -19.35,2.09 -3.339,-0.947 -6.879,-2.119 -9.195,-4.856 -5.447,-6.435 -6.549,-14.479 -4.609,-22.011 1.995,-7.751 7.703,-13.116 16.459,-14.047 2.392,-0.254 3.455,0.437 3.411,2.82 -11.316,2.328 -15.006,4.49 -14.816,9.363 2.945,-4.498 7.018,-6.388 11.606,-7.397 3.93,-0.864 3.973,-0.853 5.659,2.907 -2.12,0.027 -1.563,1.837 -1.938,3.14 m 22.329,-38.687 c 7.141,0.242 13.472,2.027 16.787,8.839 2.541,5.222 3.438,10.886 2.238,16.731 -1.805,8.794 -6.403,13.59 -14.73,15.217 -1.353,0.264 -2.746,0.337 -4.125,0.454 -8.046,0.686 -18.809,-1.951 -21.699,-12.986 -1.265,-4.829 -2.227,-9.975 -0.787,-14.485 2.258,-7.068 7.184,-12.236 15.276,-13.085 2.387,-0.25 4.777,-0.466 7.04,-0.685 m 327.553,-36.423 c -120.274,0.574 -240.499,0.567 -360.755,-0.032 3.522,-1.987 7.217,-2.949 11.279,-2.942 42.082,0.067 84.165,0.075 126.247,0.073 70.754,-0.003 141.508,-0.019 212.262,-0.06 3.951,-0.003 7.594,0.884 10.967,2.961 m 9.95,145.069 c -0.179,2.671 -0.113,5.386 -0.58,8.006 -2.481,13.934 -7.191,19.598 -19.83,22.937 -6.963,1.84 -13.897,1.418 -20.738,-0.801 -7.4,-2.4 -12.578,-6.909 -15.126,-14.536 -1.705,-5.101 -1.966,-10.259 -2.403,-15.508 -0.659,-7.918 2.595,-14.278 8.002,-19.247 9.369,-8.609 20.445,-10.153 32.536,-6.307 9.482,3.016 19.566,14.569 18.139,25.456 M -21.46,-49.982 c 1.392,2.792 3.129,4.716 4.767,6.714 2.91,3.551 2.896,3.533 6.666,1.086 2.829,-1.837 5.82,-3.341 9.3,-4.54 -0.496,4.834 -1.731,9.068 -2.942,13.318 -0.811,2.846 -0.286,3.325 2.561,2.953 3.727,-0.488 7.464,-0.901 11.447,-1.376 -0.661,3.457 -2.392,6.275 -2.806,9.442 2.272,2.126 4.514,4.224 6.905,6.462 -2.465,1.535 -4.708,2.932 -6.875,4.282 0.379,3.335 2.112,6.146 2.763,9.566 -3.292,-0.392 -6.29,-0.817 -9.302,-1.092 -5.662,-0.517 -5.65,-0.486 -4.008,5.134 1.015,3.469 2.008,6.948 2.145,10.868 -3.819,-1.481 -7.156,-3.039 -10.153,-5.225 -1.928,-1.407 -3.412,-1.347 -4.894,0.714 -1.745,2.428 -3.9,4.548 -5.378,7.274 -1.895,-2.354 -3.616,-4.513 -5.359,-6.654 -2.482,-3.049 -2.675,-3.06 -6.079,-0.822 -2.899,1.905 -5.965,3.46 -9.532,4.702 0.486,-4.836 1.731,-9.068 2.939,-13.318 0.809,-2.845 0.283,-3.329 -2.556,-2.958 -3.728,0.488 -7.465,0.901 -11.538,1.388 1.079,-3.444 2.052,-6.546 3.001,-9.572 -2.574,-1.784 -4.898,-3.395 -7.444,-5.159 2.631,-2.001 5.015,-3.814 7.456,-5.67 -0.982,-3.03 -1.957,-6.041 -3.032,-9.356 3.901,0.441 7.374,0.798 10.836,1.235 3.888,0.491 4.149,0.205 3.02,-3.717 -1.143,-3.97 -2.297,-7.936 -2.629,-12.391 3.913,1.361 7.321,3.113 10.478,5.345 1.768,1.25 3.128,1.111 4.466,-0.696 1.855,-2.506 4.091,-4.726 5.777,-7.937 m 316.627,71.456 h 46.881 c -6.351,17.913 -8.188,36.1 -7.894,54.655 h -56.526 c -0.104,-11.094 0.767,-22.136 -3.03,-32.908 3.735,-0.281 7.027,-0.604 10.327,-0.76 5.138,-0.242 7.38,-2.187 8.872,-7.095 1.373,-4.512 0.74,-9.166 1.37,-13.892 m -327.568,-195.64 c 122.879,-0.404 245.503,-0.405 368.034,-0.002 v 9.767 H 176.3 c -0.583,-4.719 -1.402,-5.441 -6.181,-5.57 -12.296,-0.331 -24.591,-0.331 -36.887,0 -4.772,0.129 -5.586,0.847 -6.171,5.512 H -32.401 Z M 292.051,21.399 c -0.252,5.088 0.025,9.994 -1.666,14.696 -0.684,1.901 -2.056,3.039 -4.113,3.211 -2.856,0.238 -5.715,0.447 -8.574,0.657 -8.863,0.653 -17.658,-0.179 -26.517,-1.039 -0.165,-2.642 -0.206,-5.134 -0.494,-7.596 -0.844,-7.197 1.093,-13.908 3.417,-20.563 0.51,-1.46 1.174,-2.69 3.124,-2.366 0.712,0.119 1.614,-0.092 1.535,-1.122 -0.078,-0.998 -0.988,-1.052 -1.701,-0.969 -2.548,0.298 -4.958,1.07 -5.921,3.721 -1.831,5.036 -3.347,10.184 -3.483,15.594 -0.313,12.512 1.498,24.882 2.662,37.292 0.481,5.132 1.86,10.155 2.069,15.525 h -87.151 c -0.08,-0.563 -0.177,-1.001 -0.199,-1.442 -0.594,-11.736 -0.9,-23.489 -0.478,-35.223 0.394,-10.969 0.529,-21.998 3.574,-32.719 1.576,-5.55 4.938,-9.142 10.321,-11 4.235,-1.462 8.596,-2.092 13.061,-2.242 9.605,-0.323 19.208,-0.765 28.814,-1.049 3.608,-0.106 7.211,-1.058 11.137,-0.349 -2.383,2.894 -3.621,5.97 -3.86,9.346 -0.173,2.45 -1.33,2.863 -3.573,2.846 -14.243,-0.108 -28.486,-0.067 -42.73,-0.035 -1.563,0.004 -3.133,0.208 -4.685,0.426 -0.768,0.108 -1.408,0.6 -1.333,1.497 0.063,0.751 0.641,1.091 1.345,1.155 0.551,0.051 1.108,0.039 1.662,0.039 14.984,-0.009 29.967,-0.029 44.951,-0.015 1.063,10e-4 2.212,-0.344 3.319,0.521 -0.86,4.859 -0.237,9.847 -0.6,14.671 -0.98,0.594 -1.835,0.429 -2.638,0.388 -15.442,-0.777 -30.882,0.007 -46.322,0.038 -2.045,0.004 -4.081,0.108 -6.05,0.63 -0.851,0.226 -2.148,0.208 -2.068,1.785 2.031,0.798 4.145,0.774 6.254,0.752 16.179,-0.172 32.355,-0.969 48.541,-0.136 2.098,0.108 2.971,0.684 2.964,2.849 -0.008,2.396 0.311,4.793 0.476,7.19 0.065,0.941 0.079,2.077 1.267,2.129 1.366,0.06 1.496,-1.145 1.523,-2.185 0.061,-2.311 0.1,-4.621 -0.271,-6.92 -0.142,-0.877 -0.477,-1.794 0.272,-2.924 3.173,0 6.485,0.011 9.796,-0.006 1.2,-0.006 2.734,0.091 2.731,-1.56 -0.002,-1.651 -1.54,-1.545 -2.737,-1.552 -3.392,-0.019 -6.783,-0.007 -10.38,-0.007 -0.278,-4.884 -0.201,-9.386 0.096,-13.892 0.089,-1.338 0.813,-1.625 2.041,-1.595 2.956,0.075 5.917,0.071 8.872,-0.015 1.072,-0.031 2.502,-0.145 2.399,-1.671 -0.108,-1.579 -1.532,-1.265 -2.609,-1.268 -3.208,-0.009 -6.417,-0.003 -9.885,-0.003 0.482,-4.049 0.383,-8.259 3.97,-10.208 3.42,-1.857 7.275,-3.406 11.515,-2.609 4.639,0.871 8.843,2.097 11.048,7.006 2.353,5.24 4.361,10.55 5.874,16.101 1.465,5.375 3.816,10.441 7.434,14.759 3.603,4.3 10.263,3.679 13.219,-1.04 1.525,-2.434 1.852,-5.174 2.276,-7.963 2.104,-0.5 4.15,-0.987 6.479,-1.541 M 11.843,-152.709 c 1.15,-0.812 2.2,-0.55 3.193,-0.55 82.411,-0.015 164.821,-0.008 247.232,-0.069 2.377,-0.002 3.167,0.522 3.143,3.046 -0.128,13.502 -0.015,27.007 -0.101,40.51 -0.013,2.077 0.669,2.83 2.675,2.766 2.565,-0.081 5.134,-0.019 7.804,-0.019 0.179,1.72 0.479,3.157 1.493,4.112 1.388,1.306 1.284,2.372 0.492,4.05 -2.944,6.236 -0.646,11.327 3.111,15.801 0.829,0.986 2.017,1.13 3.256,1.27 2.596,0.294 4.768,-1.209 7.377,-1.691 0,7.197 -0.197,14.226 0.071,21.238 0.17,4.465 -0.331,8.363 -4.02,11.425 -1.079,0.896 -1.604,2.451 -2.406,3.689 -3.901,6.023 -4.728,12.693 -4.21,19.668 0.618,8.321 2.882,15.965 8.792,22.192 0.737,0.776 1.741,1.478 1.748,2.72 0.022,4.225 0.008,8.45 0.008,12.961 -8.984,0 -17.654,-0.006 -26.325,0.008 -1.01,0.002 -1.528,-0.508 -1.755,-1.415 -0.638,-2.541 -2.241,-4.685 -3.071,-7.104 -2.812,-8.195 -9.15,-10.76 -16.98,-10.969 -11.015,-0.293 -21.981,0.897 -32.976,1.264 -8.775,0.293 -17.592,0.092 -26.298,1.363 -9.307,1.358 -16.79,5.258 -19.028,15.445 -0.425,1.934 -1.922,1.398 -3.106,1.398 -49.02,0.022 -98.039,0.023 -147.058,0.006 -0.971,0 -2.038,0.326 -3.06,-0.591 0,-2.37 -0.007,-4.855 0.005,-7.34 0.003,-0.542 -0.066,-1.166 0.493,-1.495 1.792,-1.054 1.256,-2.743 1.036,-4.213 -0.231,-1.54 -0.793,-3.033 -1.249,-4.535 -0.612,-2.013 -0.372,-3.542 1.861,-4.461 1.258,-0.518 2.379,-1.422 3.479,-2.26 1.503,-1.146 1.763,-2.566 -0.049,-3.513 -5.219,-2.728 -6.811,-6.543 -4.221,-12.016 0.664,-1.402 0.877,-3.266 -0.348,-4.417 -0.903,-0.849 -1.012,-1.63 -1.012,-2.637 10e-4,-19.332 0.03,-38.663 -0.044,-57.994 -0.007,-1.855 0.737,-2.692 2.322,-3.158 3.539,-1.041 5.986,-3.494 8.277,-6.235 2.566,-3.069 3.097,-6.864 3.995,-10.513 2.669,-10.842 -2.943,-22.664 -12.934,-27.42 -0.857,-0.408 -1.655,-0.706 -1.631,-1.916 0.058,-2.851 0.019,-5.705 0.019,-8.401 m 289.284,91.475 c 0.328,-13.023 -0.478,-25.614 0.517,-38.275 1.8,0.249 1.706,1.296 2.033,1.968 2.25,4.615 5.342,8.443 10.05,10.716 5.104,2.464 8.314,0.869 9.243,-4.65 0.592,-3.511 1.634,-6.996 0.085,-10.626 -0.684,-1.602 1.63,-2.803 1.341,-4.519 1.164,-0.616 2.314,-0.452 3.379,-0.34 2.726,0.286 3.556,-0.924 3.543,-3.527 -0.072,-15.353 -0.036,-30.705 -0.036,-46.058 v -4.149 c 0.549,-0.311 0.698,-0.465 0.856,-0.475 6.043,-0.38 6.044,-0.378 6.037,-6.579 -0.003,-2.496 -0.092,-4.994 0.011,-7.485 0.064,-1.527 -0.724,-2.408 -1.814,-3.19 -3.553,-2.553 -7.515,-4.024 -11.892,-4.025 -103.028,-0.034 -206.056,-0.043 -309.084,-0.052 -12.115,-0.001 -24.23,0.038 -36.346,0.034 -2.252,0 -4.412,0.441 -6.516,1.17 -6.253,2.165 -7.121,3.323 -7.309,9.766 -0.064,2.218 0.066,4.445 -0.064,6.657 -0.159,2.7 1.183,3.628 3.669,3.62 7.768,-0.028 15.537,-0.004 23.306,-0.001 3.219,0.001 6.439,0 9.854,0 v 17.567 c -6.882,0.712 -13.444,1.9 -18.033,8.039 -4.442,5.942 -4.015,12.629 -3.833,19.31 -1.486,0.904 -3.029,0.52 -4.456,0.794 -9.747,1.878 -14.539,8.62 -15.965,17.915 -0.793,5.173 -0.455,10.467 1.596,15.553 3.531,8.759 10.276,12.916 19.253,14.077 7.885,1.02 15.104,-0.443 21.011,-6.269 0.984,1.353 0.589,2.588 0.598,3.735 0.044,5.548 -0.092,11.101 0.079,16.645 0.065,2.109 -0.799,2.93 -2.611,3.516 -4.408,1.423 -8.719,3.079 -12.04,6.831 -2.329,-2.785 -4.598,-5.43 -6.789,-8.139 -2.068,-2.559 -3.979,-2.6 -5.263,0.343 -1.345,3.082 -4.129,4.862 -5.826,7.914 -3.765,-3.956 -8.399,-5.697 -13.114,-7.278 -0.849,-0.285 -1.719,-0.905 -2.592,-0.107 -0.928,0.846 -0.554,1.851 -0.25,2.829 1.424,4.572 1.67,9.394 3.459,14.254 -3.777,-0.385 -7.049,-0.801 -10.334,-1.03 -3.195,-0.222 -3.864,0.486 -3.3,3.645 0.371,2.079 1.042,4.12 1.75,6.116 0.417,1.176 0.228,1.874 -0.822,2.525 -1.726,1.071 -3.414,2.209 -5.071,3.384 -2.092,1.483 -2.087,2.843 -0.025,4.339 0.898,0.651 1.838,1.242 2.755,1.867 3.64,2.486 3.64,2.487 2.222,6.859 -2.084,6.423 -1.142,7.546 5.526,6.65 2.258,-0.303 4.526,-0.532 7.048,-0.825 -1.079,4.878 -2.065,9.45 -3.117,14.008 -0.248,1.075 -0.861,2.144 0.159,3.085 0.968,0.892 1.924,0.114 2.842,-0.203 4.545,-1.572 9.125,-3.089 12.64,-7.147 2.192,2.899 5.032,5.047 6.283,8.456 0.476,1.296 0.814,2.893 2.633,2.707 1.962,-0.2 3.835,-1.249 4.041,-3.237 0.368,-3.56 3.316,-5.115 4.853,-7.745 8.175,6.01 13.942,8.287 16.625,6.468 4.512,5.476 10.716,6.513 17.394,6.507 45.593,-0.04 91.186,-0.026 136.779,-0.029 1.366,0 2.732,0 4.061,0 0,2.68 0.149,5.062 -0.025,7.421 -0.979,13.305 -0.421,26.622 -0.422,39.935 0,3.446 0.803,6.77 1.569,10.096 0.436,1.89 2.007,1.621 3.356,1.622 14.15,0.017 28.3,0.013 42.451,0.013 14.427,0 28.855,-0.057 43.282,0.046 2.692,0.019 3.551,-0.662 3.167,-3.479 -1.52,-11.159 -2.829,-22.348 -4.211,-33.527 -0.088,-0.715 -0.131,-1.435 -0.204,-2.257 2.408,-0.699 4.72,-0.293 6.953,-0.016 3.597,0.446 7.201,0.677 10.791,0.436 2.569,-0.173 3.451,1.069 3.849,3.234 1.154,6.281 2.062,12.574 1.804,18.999 -0.14,3.508 0.056,7.029 -0.045,10.541 -0.073,2.499 1.024,3.549 3.462,3.499 2.751,-0.056 5.503,-0.013 8.826,-0.013 -1.535,8.664 1.398,15.209 7.991,20.241 2.817,2.15 5.855,3.375 9.419,3.541 4.256,0.199 8.317,-0.408 12.076,-2.434 3.825,-2.061 6.853,-4.984 8.977,-8.816 2.093,-3.774 1.521,-8.096 2.496,-12.147 1.738,-0.616 3.501,-0.27 5.227,-0.3 3.768,-0.066 4.041,-0.277 4.113,-4.131 0.076,-4.065 0.29,-8.133 0.36,-12.187 0.225,-12.97 2.91,-25.464 6.425,-37.853 1.823,-6.425 1.428,-6.929 -5.284,-6.931 -13.222,-0.003 -26.443,0.078 -39.664,0.114 -0.166,0.001 -0.333,-0.123 -0.74,-0.285 1.289,-2.302 3.009,-4.438 3.277,-7.127 0.264,-2.652 0.343,-5.323 -0.288,-7.785 0.955,-1.09 1.878,-0.669 2.749,-0.48 12.967,2.813 24.606,-0.223 34.085,-9.256 6.539,-6.232 8.847,-14.748 8.853,-23.776 0.004,-6.246 -2.083,-12.001 -4.663,-17.501 -1.522,-3.246 -4.378,-5.686 -7.321,-7.841 -10.065,-7.372 -21.045,-9.51 -33.72,-5.505" style="fill:#f7931e;fill-opacity:1;fill-rule:nonzero;stroke:none" id="path20"/>
        </g>
        <g id="g22" transform="translate(97.7019,359.7691)">
          <path d="m 0,0 c -15.995,0 -31.99,-0.002 -47.985,0.001 -5.252,0.002 -5.799,-0.439 -6.856,-5.655 -0.11,-0.543 -0.235,-1.094 -0.248,-1.644 -0.126,-4.896 -0.539,-9.791 -0.208,-14.692 0.543,-8.019 1.196,-16.026 1.416,-24.07 0.174,-6.367 0.871,-12.716 0.983,-19.097 0.063,-3.645 2.037,-5.528 5.725,-5.801 2.026,-0.151 4.063,-0.217 6.095,-0.214 15.621,0.025 31.243,0.082 46.864,0.116 13.498,0.03 26.996,-0.029 40.493,0.104 4.058,0.04 5.912,2.09 6.071,6.039 0.584,14.494 1.478,28.969 2.308,43.449 0.36,6.295 0.863,12.736 -1.409,18.937 -0.735,2.005 -1.811,2.586 -3.875,2.576 C 32.917,-0.03 16.458,0.005 0,0 m 16.289,-74.357 c -7.667,0 -15.335,-0.064 -23.002,0.014 -13.305,0.135 -26.61,0.334 -39.914,0.556 -5.587,0.093 -8.311,2.984 -8.69,8.632 -0.985,14.648 -1.755,29.309 -2.931,43.949 -0.555,6.911 -0.727,14.042 2.013,20.771 1.082,2.659 2.613,3.992 5.806,3.954 14.141,-0.173 28.285,-0.046 42.428,-0.047 19.402,-0.002 38.805,-0.079 58.207,0.03 2.816,0.016 4.237,-1.167 5.255,-3.505 2.986,-6.865 2.747,-14.193 2.19,-21.286 -1.151,-14.641 -1.943,-29.301 -2.923,-43.95 -0.373,-5.586 -3.145,-8.5 -8.769,-8.541 -9.889,-0.072 -19.78,-0.02 -29.669,-0.02 0,-0.186 0,-0.372 -10e-4,-0.557" style="fill:#f7931e;fill-opacity:1;fill-rule:nonzero;stroke:none" id="path24"/>
        </g>
        <g id="g26" transform="translate(379.6031,0.6104)">
          <path d="m 0,0 c 11.274,0 22.548,0.002 33.822,-0.001 4.442,-0.001 5.418,0.774 5.724,5.299 0.281,4.144 0.339,8.3 0.057,12.465 -0.594,8.753 -1.151,17.511 -1.526,26.276 -0.272,6.354 -0.917,7.146 -7.257,7.2 C 30.173,51.245 29.526,51.211 28.88,51.21 20.101,51.201 11.322,51.19 2.543,51.188 -9.1,51.184 -20.744,51.255 -32.386,51.155 c -4.476,-0.039 -5.415,-1.293 -5.625,-5.682 -0.444,-9.316 -1.048,-18.625 -1.528,-27.94 -0.257,-4.974 -0.579,-9.963 0.602,-14.885 0.472,-1.968 1.553,-2.733 3.728,-2.71 C -23.473,0.058 -11.736,-0.005 0,0 m 0.279,53.155 c 10.812,0 21.625,0.067 32.437,-0.03 5.057,-0.045 6.708,-1.853 7.046,-6.866 0.688,-10.23 1.573,-20.451 2.083,-30.69 0.251,-5.037 0.532,-10.16 -1.362,-15.062 -0.829,-2.143 -2.06,-3.159 -4.537,-3.115 -11.825,0.207 -23.652,0.034 -35.481,0.231 -12.101,0.201 -24.211,-0.038 -36.315,-0.232 -2.458,-0.04 -3.727,0.914 -4.569,3.072 -1.911,4.898 -1.63,10.022 -1.38,15.058 0.518,10.424 1.404,20.83 2.108,31.245 0.288,4.255 2.128,6.301 6.42,6.34 11.182,0.103 22.366,0.035 33.549,0.035 0,0.005 0,0.009 0.001,0.014" style="fill:#f7931e;fill-opacity:1;fill-rule:nonzero;stroke:none" id="path28"/>
        </g>
        <g id="g30" transform="translate(69.0333,22.7569)">
          <path d="m 0,0 c 2.942,8.12 6.857,15.441 10.093,23.061 2.195,5.169 -0.27,10.223 -5.68,11.835 -5.476,1.631 -10.589,0.216 -15.385,-2.516 -2.953,-1.682 -3.711,-4.426 -3.15,-7.62 0.644,-3.676 1.916,-7.107 4.059,-10.195 C -6.805,9.873 -3.567,5.166 0,0 M -1,38.605 C 1.807,38.536 3.816,38.648 5.806,37.962 12.699,35.586 16.129,28.576 13.242,21.896 9.62,13.514 5.378,5.405 2.347,-3.24 1.545,-5.527 -0.577,-5.831 -1.787,-3.7 c -4.02,7.08 -9.577,13.147 -13.296,20.403 -1.492,2.909 -2.192,6.07 -2.409,9.325 -0.315,4.74 2.012,7.935 6.094,9.947 3.507,1.728 7.154,3.032 10.398,2.63" style="fill:#f7931e;fill-opacity:1;fill-rule:nonzero;stroke:none" id="path32"/>
        </g>
        <g id="g34" transform="translate(441.9124,126.2168)">
          <path d="m 0,0 c -1.101,-1.464 -2.54,-1.224 -3.889,-1.109 -8.012,0.687 -15.942,1.995 -23.879,3.239 -0.859,0.135 -1.628,0.352 -1.905,1.345 0.697,1.708 2.242,1.555 3.538,1.389 C -18.169,3.84 -10.216,2.715 -2.261,1.605 -1.332,1.475 -0.444,1.195 0,0" style="fill:#f7931e;fill-opacity:1;fill-rule:nonzero;stroke:none" id="path36"/>
        </g>
        <g id="g38" transform="translate(440.3302,148.8119)">
          <path d="M 0,0 C -9.607,-3.088 -19.498,-4.831 -29.927,-6.791 -27.647,-2.72 -3.259,2.806 0,0" style="fill:#f7931e;fill-opacity:1;fill-rule:nonzero;stroke:none" id="path40"/>
        </g>
        <g id="g42" transform="translate(409.8612,154.466)">
          <path d="m 0,0 c -1.26,0.104 -1.636,0.751 -1.396,1.714 0.256,1.025 1.003,1.766 1.806,2.389 4.948,3.845 9.909,7.673 14.886,11.481 0.714,0.546 1.629,1.294 2.44,0.394 0.911,-1.012 0.072,-1.964 -0.692,-2.59 C 14.622,11.404 12.105,9.536 9.648,7.595 6.973,5.481 4.327,3.331 1.66,1.208 1.092,0.756 0.486,0.352 0,0" style="fill:#f7931e;fill-opacity:1;fill-rule:nonzero;stroke:none" id="path44"/>
        </g>
        <g id="g46" transform="translate(42.8228,191.3525)">
          <path d="m 0,0 c -0.441,-1.538 -0.945,-3.484 -1.571,-5.39 -0.276,-0.84 -0.972,-1.382 -1.932,-1.117 -1.09,0.3 -1.374,1.142 -1.118,2.156 0.447,1.772 0.982,3.523 1.411,5.299 0.253,1.044 0.566,2.129 1.851,1.898 C -0.165,2.632 -0.053,1.476 0,0" style="fill:#f7931e;fill-opacity:1;fill-rule:nonzero;stroke:none" id="path48"/>
        </g>
        <g id="g50" transform="translate(43.6049,273.1073)">
          <path d="m 0,0 c 0.041,-1.273 -0.093,-1.995 -0.982,-2.212 -0.82,-0.2 -1.468,0.194 -1.846,0.883 -1.118,2.037 -1.486,4.32 -1.968,6.551 -0.142,0.653 0.345,1.232 1.051,1.421 0.988,0.265 1.686,-0.316 1.973,-1.096 C -1.048,3.579 -0.486,1.552 0,0" style="fill:#f7931e;fill-opacity:1;fill-rule:nonzero;stroke:none" id="path52"/>
        </g>
        <g id="g54" transform="translate(62.33,192.9811)">
          <path d="M 0,0 C -0.009,0.931 0.047,1.598 0.796,1.86 1.609,2.143 2.354,1.843 2.684,1.119 3.524,-0.727 4.294,-2.61 4.981,-4.518 5.256,-5.283 4.871,-6.003 4.085,-6.324 3.304,-6.643 2.562,-6.402 2.148,-5.694 1.067,-3.85 0.374,-1.849 0,0" style="fill:#f7931e;fill-opacity:1;fill-rule:nonzero;stroke:none" id="path56"/>
        </g>
        <g id="g58" transform="translate(11.9974,220.4219)">
          <path d="m 0,0 c -0.819,-2.161 -6.171,-5.392 -7.896,-5.138 -0.594,0.087 -1.053,0.353 -1.208,0.951 -0.148,0.57 -0.03,1.182 0.481,1.465 C -6.031,-1.288 -3.476,0.321 0,0" style="fill:#f7931e;fill-opacity:1;fill-rule:nonzero;stroke:none" id="path60"/>
        </g>
        <g id="g62" transform="translate(23.0108,203.2048)">
          <path d="m 0,0 c -1.105,-2.149 -2.294,-4.545 -4.27,-6.414 -0.408,-0.386 -1.053,-0.364 -1.523,0.059 -0.469,0.422 -0.489,1.031 -0.283,1.543 0.905,2.25 2.209,4.253 4.003,5.899 0.394,0.362 0.922,0.64 1.519,0.334 C -0.082,1.18 0.065,0.774 0,0" style="fill:#f7931e;fill-opacity:1;fill-rule:nonzero;stroke:none" id="path64"/>
        </g>
        <g id="g66" transform="translate(17.46,265.4978)">
          <path d="M 0,0 C 1.742,-0.459 3.434,-1.502 4.713,-3.159 5.148,-3.722 5.118,-4.389 4.653,-4.944 4.196,-5.49 3.559,-5.721 2.928,-5.326 c -1.478,0.922 -2.95,1.864 -4.346,2.904 -0.486,0.362 -0.814,1.03 -0.507,1.73 C -1.61,0.026 -0.969,0.084 0,0" style="fill:#f7931e;fill-opacity:1;fill-rule:nonzero;stroke:none" id="path68"/>
        </g>
        <g id="g70" transform="translate(9.3092,245.1846)">
          <path d="M 0,0 C 0.024,-0.882 -0.425,-1.488 -1.283,-1.407 -3.552,-1.193 -5.443,-0.088 -6.95,1.562 -7.59,2.263 -7.347,3.13 -6.447,3.617 -5.071,4.362 -0.082,1.55 0,0" style="fill:#f7931e;fill-opacity:1;fill-rule:nonzero;stroke:none" id="path72"/>
        </g>
        <g id="g74" transform="translate(64.1125,277.5749)">
          <path d="M 0,0 C 0.249,0.693 0.621,1.919 1.132,3.085 1.481,3.883 2.136,4.468 3.104,4.103 4.106,3.726 4.061,2.804 3.866,2.002 3.587,0.849 3.185,-0.277 2.774,-1.393 2.467,-2.227 1.881,-2.911 0.918,-2.615 -0.022,-2.326 -0.097,-1.424 0,0" style="fill:#f7931e;fill-opacity:1;fill-rule:nonzero;stroke:none" id="path76"/>
        </g>
        <g id="g78" transform="translate(282.2761,300.0006)">
          <path d="m 0,0 c 8.587,0.303 17.175,0.614 25.763,0.897 0.821,0.028 1.669,-0.02 2.466,-0.202 0.657,-0.15 1.114,-0.671 1.049,-1.433 -0.052,-0.611 -0.434,-1.052 -0.995,-1.201 -0.614,-0.163 -1.267,-0.236 -1.905,-0.248 -15.522,-0.282 -31.032,-1.161 -46.567,-0.889 -3.317,0.059 -6.642,-0.33 -9.964,-0.498 -0.829,-0.042 -1.665,-0.073 -2.492,-0.02 -0.957,0.06 -1.957,0.259 -1.859,1.528 0.079,1.026 0.926,1.287 1.814,1.336 3.688,0.204 7.375,0.522 11.065,0.569 7.208,0.09 14.419,0.026 21.629,0.026 C 0.003,-0.09 0.001,-0.045 0,0" style="fill:#f7931e;fill-opacity:1;fill-rule:nonzero;stroke:none" id="path80"/>
        </g>
        <g id="g82" transform="translate(279.4418,309.6882)">
          <path d="m 0,0 c 9.722,-0.65 18.03,-0.382 26.336,-0.403 1.124,-0.003 3.046,0.797 3.018,-1.235 -0.023,-1.655 -1.839,-1.538 -3.086,-1.564 -5.537,-0.116 -11.078,-0.321 -16.61,-0.2 -12.18,0.264 -24.352,0.708 -36.525,-0.28 -1.512,-0.123 -4.091,-0.918 -4.32,1.069 -0.276,2.387 2.431,1.545 3.863,1.741 C -17.777,0.439 -8.168,-0.022 0,0" style="fill:#f7931e;fill-opacity:1;fill-rule:nonzero;stroke:none" id="path84"/>
        </g>
        <g id="g86" transform="translate(271.5256,314.4593)">
          <path d="M 0,0 C 0.41,1.158 1.454,1.262 2.296,1.295 5.965,1.439 9.64,1.46 13.312,1.497 14.222,1.507 15.011,1.141 15.057,0.131 15.096,-0.718 14.471,-1.256 13.65,-1.256 9.52,-1.257 5.39,-1.22 1.261,-1.139 0.758,-1.129 0.177,-0.876 0,0" style="fill:#f7931e;fill-opacity:1;fill-rule:nonzero;stroke:none" id="path88"/>
        </g>
        <g id="g90" transform="translate(363.8998,319.449)">
          <path d="m 0,0 c -0.545,-1.582 -1.81,-2.072 -3.229,-2.078 -1.058,-0.005 -1.73,0.8 -1.617,1.831 0.161,1.465 1.132,2.296 2.629,2.235 C -0.999,1.939 -0.181,1.291 0,0" style="fill:#f7931e;fill-opacity:1;fill-rule:nonzero;stroke:none" id="path92"/>
        </g>
        <g id="g94" transform="translate(403.9018,278.4754)">
          <path d="m 0,0 c -0.026,-1.068 0.019,-2.304 -1.378,-2.278 -1.253,0.023 -1.551,1.141 -1.502,2.227 0.048,1.076 -0.052,2.55 1.402,2.56 C -0.014,2.519 -0.211,0.994 0,0" style="fill:#f7931e;fill-opacity:1;fill-rule:nonzero;stroke:none" id="path96"/>
        </g>
        <g id="g98" transform="translate(398.298,319.4189)">
          <path d="M 0,0 C 0.094,1.146 0.644,1.842 1.694,1.955 2.776,2.072 3.51,1.474 3.601,0.413 3.702,-0.771 3.009,-1.56 1.832,-1.619 0.763,-1.672 0.202,-0.928 0,0" style="fill:#f7931e;fill-opacity:1;fill-rule:nonzero;stroke:none" id="path100"/>
        </g>
        <g id="g102" transform="translate(385.6416,232.0325)">
          <path d="M 0,0 C 1.259,1.378 0.01,4.37 2.446,4.274 4.826,4.18 3.127,1.655 4.021,0.164 5.595,-0.556 7.566,0.01 9.452,-0.21 c 1.871,-0.219 3.399,-0.868 4.275,-2.619 0.426,-0.852 0.795,-1.816 -0.209,-2.478 -1.037,-0.684 -1.736,-0.039 -2.194,0.892 -0.567,1.153 -1.526,1.508 -2.732,1.496 -4.522,-0.047 -9.045,-0.12 -13.567,-0.09 -2.183,0.014 -3.086,-1.004 -2.817,-3.075 0.921,-7.084 -0.691,-6.379 6.526,-5.765 3.59,0.306 7.198,0.431 10.8,0.531 2.388,0.067 3.807,-1.494 4.143,-4.925 0.232,-2.376 0.048,-4.802 -0.076,-7.199 -0.089,-1.709 -1.168,-2.689 -2.835,-2.902 -1.373,-0.175 -2.765,-0.298 -4.147,-0.282 -1.397,0.016 -2.345,-0.251 -2.318,-1.925 0.017,-1.055 -0.186,-2.227 -1.574,-2.114 -1.371,0.113 -1.302,1.325 -1.303,2.359 v 1.362 c -1.594,0.767 -3.201,0.272 -4.735,0.479 -2.256,0.304 -3.844,1.311 -4.037,3.784 -0.07,0.895 0.185,1.702 1.165,1.952 0.876,0.224 1.498,-0.282 1.639,-1.082 0.326,-1.852 1.623,-1.988 3.101,-1.986 3.236,0.005 6.472,-0.005 9.708,-0.052 1.72,-0.025 2.6,0.693 2.493,2.477 -0.023,0.365 0.067,0.736 0.089,1.105 0.331,5.548 -0.296,6.207 -5.82,5.908 -3.507,-0.189 -7.008,-0.484 -10.514,-0.695 -3.376,-0.203 -4.36,0.612 -4.712,3.92 -0.205,1.927 -0.453,3.864 -0.439,5.795 0.022,3.183 1.341,4.541 4.471,4.848 C -4.064,-0.285 -1.954,-0.153 0,0" style="fill:#f7931e;fill-opacity:1;fill-rule:nonzero;stroke:none" id="path104"/>
        </g>
        <g id="g106" transform="translate(411.5294,216.3714)">
          <path d="m 0,0 c -1.138,15.722 -9.259,25.145 -24.661,25.026 -15.123,-0.118 -23.081,-9.512 -24.12,-24.965 -3.015,5.643 0.338,14.952 7,20.612 9.262,7.87 24.672,8.036 34.276,0.37 C -0.582,15.517 2.995,6.046 0,0" style="fill:#f7931e;fill-opacity:1;fill-rule:nonzero;stroke:none" id="path108"/>
        </g>
        <g id="g110" transform="translate(365.9544,206.7592)">
          <path d="m 0,0 c 4.979,-7.541 12.634,-10.256 21.124,-10.257 8.501,0 16.172,2.699 21.516,10.728 0.959,-2.912 -0.379,-4.426 -1.751,-5.806 -3.82,-3.844 -8.672,-5.602 -13.891,-6.335 -8.789,-1.236 -17.171,-0.332 -24.469,5.351 -1.326,1.032 -2.5,2.225 -3.056,3.861 C -0.777,-1.723 -1.298,-0.895 0,0" style="fill:#f7931e;fill-opacity:1;fill-rule:nonzero;stroke:none" id="path112"/>
        </g>
        <g id="g114" transform="translate(76.2492,137.3972)">
          <path d="m 0,0 c 1.053,0.963 0.103,3.233 2.006,3.033 1.489,-0.157 0.395,-1.952 1.005,-2.83 7.606,-1.398 7.627,-1.411 6.631,-4.254 -4.028,3.631 -8.847,1.37 -13.313,1.84 -1.227,0.13 -1.76,-0.585 -1.853,-1.855 -0.306,-4.147 0.295,-4.779 4.377,-4.49 2.579,0.183 5.165,0.26 7.746,0.416 1.213,0.073 2.137,-0.225 2.714,-1.427 1.233,-2.573 0.882,-5.239 0.483,-7.879 -0.174,-1.154 -1.238,-1.517 -2.326,-1.599 -1.195,-0.089 -2.391,-0.169 -3.529,-0.249 -1.147,-0.654 -0.145,-2.605 -1.839,-2.818 -1.527,0.408 -0.585,1.947 -1.291,2.893 -1.049,0.058 -2.146,0.09 -3.237,0.188 -1.306,0.117 -2.292,0.721 -2.659,2.05 -0.203,0.736 -0.275,1.542 0.581,1.917 0.792,0.346 1.193,-0.203 1.397,-0.891 0.34,-1.149 1.28,-1.2 2.22,-1.225 1.662,-0.044 3.326,-0.09 4.989,-0.087 3.479,0.005 5.102,2.84 3.547,6.034 -0.535,1.098 -1.394,1.056 -2.321,0.999 -2.951,-0.182 -5.907,-0.316 -8.85,-0.596 -2.384,-0.227 -3.768,0.552 -3.779,3.117 -0.002,0.366 -0.099,0.732 -0.147,1.098 -0.672,5.155 0.191,6.183 5.438,6.485 0.724,0.042 1.449,0.094 2.01,0.13" style="fill:#f7931e;fill-opacity:1;fill-rule:nonzero;stroke:none" id="path116"/>
        </g>
        <g id="g118" transform="translate(95.2252,126.3993)">
          <path d="m 0,0 c -2.847,12.309 -8.476,17.918 -17.677,17.992 -9.253,0.075 -14.887,-5.47 -17.818,-17.539 -1.903,3.248 -0.113,9.123 3.999,13.122 6.453,6.276 16.736,7.22 24.621,2.26 C -1.189,12.258 1.843,5.617 0,0" style="fill:#f7931e;fill-opacity:1;fill-rule:nonzero;stroke:none" id="path120"/>
        </g>
        <g id="g122" transform="translate(61.6167,119.2672)">
          <path d="M 0,0 C 10.574,-10.111 20.167,-10.117 31.47,-0.258 31.944,-2.276 30.776,-3.428 29.559,-4.425 24.148,-8.861 17.827,-9.423 11.232,-8.458 7.71,-7.943 4.442,-6.7 1.785,-4.204 0.718,-3.201 -0.193,-2.097 0,0" style="fill:#f7931e;fill-opacity:1;fill-rule:nonzero;stroke:none" id="path124"/>
        </g>
        <g id="g126" transform="translate(74.7399,154.6459)">
          <path d="m 0,0 c -3.199,12.517 -8.309,17.753 -17.334,18.03 -3.194,0.099 -6.264,-0.601 -9.021,-2.236 -2.718,-1.612 -5.136,-3.602 -6.715,-6.433 -1.536,-2.754 -2.229,-5.754 -2.346,-8.922 -2.058,4.122 0.13,10.108 4.93,14.186 6.4,5.436 16.539,5.913 23.804,1.119 C -1.142,12.089 1.696,5.75 0,0" style="fill:#f7931e;fill-opacity:1;fill-rule:nonzero;stroke:none" id="path128"/>
        </g>
        <g id="g130" transform="translate(69.9952,340.4735)">
          <path d="M 0,0 V 10.499 C -6.109,9.75 -12.063,9.963 -17.982,9.793 -18.396,6.161 -17.766,3.064 -16.668,0 Z m -8.937,-2.897 c -2.775,0 -5.55,0.005 -8.325,-0.003 -1.22,-0.003 -2.242,0.311 -2.47,1.688 -0.542,3.27 -1.328,6.482 -1.241,9.869 0.064,2.5 1.306,3.723 3.408,3.867 6.357,0.436 12.728,0.168 19.089,-0.11 0.985,-0.043 1.355,-0.88 1.36,-1.8 C 2.902,7.193 2.934,3.771 2.895,0.35 2.869,-1.911 1.729,-2.972 -0.614,-2.883 c -2.771,0.105 -5.549,0.024 -8.323,0.024 z" style="fill:#f7931e;fill-opacity:1;fill-rule:nonzero;stroke:none" id="path132"/>
        </g>
        <g id="g134" transform="translate(56.9388,307.0334)">
          <path d="M 0,0 C 1.077,1.9 2.81,1.737 4.427,1.726 18.18,1.634 31.93,1.837 45.676,2.235 c 2.028,0.059 4.053,0.204 6.079,0.306 1.08,0.054 2.222,-0.057 2.294,-1.378 C 54.12,-0.141 53.007,-0.433 51.93,-0.483 47.69,-0.676 43.45,-0.966 39.208,-1.002 27.302,-1.104 15.395,-1.105 3.488,-1.122 2.325,-1.124 1.049,-1.376 0,0" style="fill:#f7931e;fill-opacity:1;fill-rule:nonzero;stroke:none" id="path136"/>
        </g>
        <g id="g138" transform="translate(77.6475,300.6108)">
          <path d="m 0,0 c 9.362,-0.351 18.646,0.767 27.958,1.401 1.295,0.088 3.498,0.945 3.701,-1.159 0.208,-2.171 -2.09,-1.612 -3.392,-1.764 -14.825,-1.739 -29.714,-1.594 -44.603,-1.415 -0.277,0.003 -0.561,-0.006 -0.83,0.047 -0.967,0.188 -2.305,0.137 -2.22,1.516 0.07,1.143 1.264,1.181 2.187,1.2 3.698,0.077 7.396,0.129 11.095,0.17 C -4.07,0.018 -2.035,0 0,0" style="fill:#f7931e;fill-opacity:1;fill-rule:nonzero;stroke:none" id="path140"/>
        </g>
        <g id="g142" transform="translate(82.4309,318.1198)">
          <path d="m 0,0 c -8.314,-0.057 -16.642,-0.491 -24.933,0.491 -1.091,0.13 -2.587,0.054 -2.54,1.509 0.054,1.686 1.642,1.464 2.808,1.375 15.426,-1.17 30.874,-0.254 46.309,-0.507 0.462,-0.007 0.925,0 1.387,-0.011 0.94,-0.023 1.731,-0.414 1.723,-1.405 C 24.745,0.476 23.96,0.049 23.022,0.037 20.988,0.011 18.954,0.003 16.919,0.001 11.28,-0.003 5.64,0 0,0" style="fill:#f7931e;fill-opacity:1;fill-rule:nonzero;stroke:none" id="path144"/>
        </g>
        <g id="g146" transform="translate(139.3684,319.1193)">
          <path d="M 0,0 C -0.028,2.195 -0.695,2.977 -2.883,2.959 -5.095,2.941 -5.654,1.447 -5.818,-0.285 -5.978,-1.981 -4.176,-3.796 -2.545,-3.603 -0.894,-3.407 0.114,-2.479 0,0 M 2.61,-0.035 C 2.449,-3.86 0.492,-5.89 -2.882,-5.732 c -3.236,0.152 -5.756,2.694 -5.575,5.624 0.218,3.539 2.926,6.139 6.238,5.987 C 1.267,5.72 2.774,3.873 2.61,-0.035" style="fill:#f7931e;fill-opacity:1;fill-rule:nonzero;stroke:none" id="path148"/>
        </g>
        <g id="g150" transform="translate(137.9078,298.9054)">
          <path d="M 0,0 C 1.714,-0.088 2.331,0.799 2.288,2.371 2.237,4.256 1.463,5.638 -0.509,5.808 -2.428,5.974 -3.421,4.707 -3.514,2.947 -3.642,0.526 -1.715,0.308 0,0 m 4.657,2.672 c -0.118,-3.655 -1.617,-5.2 -4.962,-5.116 -3.614,0.091 -5.95,2.211 -5.776,5.244 0.147,2.575 3.379,5.777 5.816,5.764 2.67,-0.015 5.021,-2.828 4.922,-5.892" style="fill:#f7931e;fill-opacity:1;fill-rule:nonzero;stroke:none" id="path152"/>
        </g>
        <g id="g154" transform="translate(139.4897,337.7858)">
          <path d="m 0,0 c -0.36,-1.259 -1.329,-1.404 -2.402,-1.27 -0.855,0.107 -1.851,0.425 -1.764,1.391 0.132,1.473 1.446,1.444 2.56,1.403 C -0.679,1.491 -0.048,1.032 0,0" style="fill:#f7931e;fill-opacity:1;fill-rule:nonzero;stroke:none" id="path156"/>
        </g>
        <g id="g158" transform="translate(136.5785,340.8689)">
          <path d="M 0,0 C -0.858,0.055 -1.827,0.076 -1.849,1.169 -1.874,2.409 -0.814,2.541 0.103,2.533 1.007,2.526 2.132,2.424 2.07,1.192 2.009,-0.036 0.868,0.073 0,0" style="fill:#f7931e;fill-opacity:1;fill-rule:nonzero;stroke:none" id="path160"/>
        </g>
        <g id="g162" transform="translate(367.7035,6.8009)">
          <path d="m 0,0 c -5.268,0.138 -10.516,-0.256 -15.771,-0.531 -1.102,-0.057 -2.819,-0.482 -2.838,1.25 -0.017,1.582 1.64,1.392 2.807,1.503 10.406,0.992 20.841,0.569 31.266,0.62 0.369,0.002 0.738,-0.007 1.108,-0.018 0.97,-0.028 2.024,-0.168 2.034,-1.361 C 18.616,0.301 17.608,0.036 16.617,0.03 13.294,0.009 9.97,0.006 6.647,0.001 4.431,-0.003 2.216,0 0,0" style="fill:#f7931e;fill-opacity:1;fill-rule:nonzero;stroke:none" id="path164"/>
        </g>
        <g id="g166" transform="translate(411.4599,14.3522)">
          <path d="m 0,0 h -12.058 c -0.071,-2.577 -0.303,-4.936 0.209,-7.481 4.31,0.746 8.551,0.234 12.748,0.664 C 1.307,-4.342 0.743,-2.226 0,0 M -5.766,2.264 C -4.66,2.265 -3.538,2.383 -2.451,2.237 -0.906,2.03 1.348,3.144 2.021,1.187 2.998,-1.651 3.652,-4.743 2.654,-7.754 2.341,-8.7 1.066,-8.947 0.027,-8.981 c -4.237,-0.137 -8.471,-0.165 -12.703,0.204 -1.104,0.096 -1.427,0.63 -1.455,1.574 -0.008,0.277 -0.005,0.553 -0.005,0.83 0.017,9.836 -1.309,8.463 8.37,8.637" style="fill:#f7931e;fill-opacity:1;fill-rule:nonzero;stroke:none" id="path168"/>
        </g>
        <g id="g170" transform="translate(364.0296,14.7195)">
          <path d="m 0,0 c -3.995,0.463 -8.247,0.478 -12.503,0.411 -1.118,-0.018 -2.476,-0.11 -2.442,1.475 0.032,1.454 1.355,1.636 2.482,1.614 C -3.868,3.328 4.726,3.114 13.32,2.903 13.686,2.894 14.05,2.79 14.414,2.721 15.276,2.557 16.18,2.235 16.163,1.253 16.142,0.02 15.055,-0.073 14.115,-0.071 9.583,-0.065 5.052,-0.027 0.521,0 0.429,0 0.336,0 0,0" style="fill:#f7931e;fill-opacity:1;fill-rule:nonzero;stroke:none" id="path172"/>
        </g>
        <g id="g174" transform="translate(351.3985,32.4255)">
          <path d="m 0,0 c -1.306,-0.108 -2.079,-0.727 -2.016,-2.075 0.054,-1.163 -0.054,-2.466 1.685,-2.587 1.648,-0.115 2.367,0.816 2.443,2.26 C 2.185,-1.007 1.277,-0.29 0,0 m -3.968,-2.758 c 0.034,2.821 1.385,4.331 3.852,4.304 2.319,-0.024 4.18,-1.761 4.163,-3.885 -0.02,-2.428 -1.985,-4.478 -4.289,-4.472 -2.501,0.005 -3.758,1.373 -3.726,4.053" style="fill:#f7931e;fill-opacity:1;fill-rule:nonzero;stroke:none" id="path176"/>
        </g>
        <g id="g178" transform="translate(350.4396,44.4098)">
          <path d="m 0,0 c -1.25,0.029 -1.709,-0.631 -1.669,-1.74 0.049,-1.371 0.65,-2.374 2.106,-2.419 1.355,-0.043 2.024,0.893 2.026,2.15 C 2.465,-0.387 1.151,-0.219 0,0 M -3.447,-2.572 C -3.283,0.769 -2.022,1.88 0.327,1.775 2.837,1.663 4.559,-0.021 4.351,-2.137 4.17,-3.982 1.787,-6.17 0.026,-6.107 c -2.022,0.072 -3.562,2.104 -3.473,3.535" style="fill:#f7931e;fill-opacity:1;fill-rule:nonzero;stroke:none" id="path180"/>
        </g>
        <g id="g182" transform="translate(405.659,43.5952)">
          <path d="M 0,0 C -1.117,0.169 -2.74,-0.158 -2.731,1.266 -2.72,2.912 -1.03,2.546 0.094,2.562 1.165,2.577 2.752,2.701 2.745,1.321 2.737,-0.363 0.983,0.267 0,0" style="fill:#f7931e;fill-opacity:1;fill-rule:nonzero;stroke:none" id="path184"/>
        </g>
        <g id="g186" transform="translate(407.1541,32.4368)">
          <path d="M 0,0 C -0.788,0.033 -1.618,0.172 -1.575,1.124 -1.524,2.28 -0.513,2.499 0.415,2.595 1.116,2.669 1.763,2.374 1.823,1.61 1.921,0.348 0.87,0.241 0,0" style="fill:#f7931e;fill-opacity:1;fill-rule:nonzero;stroke:none" id="path188"/>
        </g>
        <g id="g190" transform="translate(71.938,46.5834)">
          <path d="m 0,0 c -0.07,-3.399 -0.981,-4.435 -3.872,-4.405 -3.065,0.032 -5.046,1.566 -5.068,3.925 -0.026,2.699 2.3,5.769 4.361,5.753 C -1.575,5.251 0.069,3.358 0,0" style="fill:#f7931e;fill-opacity:1;fill-rule:nonzero;stroke:none" id="path192"/>
        </g>
        <g id="g194" transform="translate(380.7551,310.7699)">
          <path d="M 0,0 C 1.259,1.378 0.01,4.37 2.446,4.274 4.826,4.18 3.127,1.655 4.021,0.164 5.595,-0.556 7.566,0.01 9.452,-0.21 c 1.871,-0.219 3.399,-0.868 4.275,-2.619 0.426,-0.852 0.795,-1.816 -0.209,-2.478 -1.037,-0.684 -1.736,-0.039 -2.194,0.892 -0.567,1.153 -1.526,1.508 -2.732,1.496 -4.522,-0.047 -9.045,-0.12 -13.567,-0.09 -2.183,0.014 -3.086,-1.004 -2.817,-3.075 0.921,-7.084 -0.691,-6.379 6.526,-5.765 3.59,0.306 7.198,0.431 10.8,0.531 2.388,0.067 3.807,-1.494 4.143,-4.925 0.232,-2.376 0.048,-4.803 -0.076,-7.2 -0.089,-1.708 -1.168,-2.688 -2.835,-2.901 -1.373,-0.175 -2.765,-0.298 -4.147,-0.282 -1.397,0.016 -2.345,-0.251 -2.318,-1.925 0.017,-1.055 -0.186,-2.227 -1.574,-2.114 -1.371,0.113 -1.302,1.325 -1.303,2.359 v 1.362 c -1.594,0.767 -3.201,0.272 -4.735,0.479 -2.256,0.304 -3.844,1.311 -4.037,3.784 -0.07,0.895 0.185,1.702 1.165,1.952 0.876,0.224 1.498,-0.282 1.639,-1.082 0.326,-1.853 1.623,-1.988 3.101,-1.986 3.236,0.005 6.472,-0.005 9.708,-0.052 1.72,-0.026 2.6,0.693 2.492,2.477 -0.022,0.365 0.068,0.736 0.09,1.105 0.331,5.548 -0.296,6.207 -5.82,5.908 -3.507,-0.189 -7.008,-0.484 -10.515,-0.695 -3.375,-0.203 -4.359,0.612 -4.711,3.92 -0.205,1.927 -0.453,3.864 -0.439,5.795 0.022,3.183 1.341,4.541 4.471,4.848 C -4.064,-0.285 -1.954,-0.153 0,0" style="fill:#f7931e;fill-opacity:1;fill-rule:nonzero;stroke:none" id="path196"/>
        </g>
        <g id="g198" transform="translate(72.4914,250.5298)">
          <path d="M 0,0 C 2.48,0.352 2.867,2.021 1.397,5.187 0.913,3.39 0.473,1.758 0,0 m 1.706,-40.25 c 0.629,6.005 0.629,6.005 -1.463,6.293 0,-0.36 -0.073,-0.728 0.013,-1.053 0.461,-1.753 0.963,-3.495 1.45,-5.24 m 305.164,-81.197 c 0.002,-0.178 0.006,-0.356 0.009,-0.534 h 22.15 c -0.003,0.178 -0.007,0.356 -0.01,0.534 z m -13.832,-1.082 c 0.002,0.237 0.003,0.475 0.005,0.713 h -25.277 c 0.002,-0.238 0.004,-0.476 0.006,-0.713 z m 28.214,25.879 c -4.248,-4.532 -10.263,-5.832 -15.227,-9.958 h 15.828 c 0.249,0.141 0.498,0.281 0.747,0.422 -4.697,2.818 0.003,6.051 -1.348,9.536 M 281.953,22.812 c 0.653,6.286 -3.016,10.385 -7.569,8.525 -3.553,-1.451 -4.591,-5.074 -6.326,-8.525 z M 279.032,-90.46 c -0.646,-3.473 -0.209,-6.366 1.568,-8.985 1.002,-1.476 1.009,-2.611 -0.519,-3.764 -1.094,-0.826 -2.023,-1.903 -1.725,-3.502 h 18.166 c -7.762,3.775 -12.089,10.342 -17.49,16.251 m 25.37,-14.982 c 1.257,2.101 2.961,2.791 4.567,3.649 3.645,1.95 7.58,3.455 10.505,6.545 1.514,1.601 1.501,4.333 0.012,6.321 -1.287,1.718 -2.901,0.77 -4.274,0.264 -5.768,-2.123 -10.927,-9.889 -10.81,-16.779 m -152.793,-58.831 c -6.277,0 -12.553,-0.022 -18.83,0.015 -1.546,0.009 -2.746,-0.147 -2.714,-2.14 0.031,-1.91 1.565,-1.657 2.584,-1.7 2.298,-0.097 4.609,0.157 6.914,0.162 10.152,0.023 20.305,0.214 30.457,-0.163 1.247,-0.046 3.192,-0.587 3.234,1.838 0.042,2.348 -1.659,1.981 -3.093,1.984 -6.184,0.012 -12.368,0.005 -18.552,0.004 m 149.636,57.597 c -0.357,6.966 -3.562,12.526 -7.551,17.652 -2.258,2.902 -5.311,4.767 -9.18,5.006 -1.646,0.101 -2.577,-0.713 -3.33,-1.97 -0.736,-1.23 -0.81,-2.496 0.126,-3.607 5.68,-6.735 11.108,-13.773 19.935,-17.081 m 5.598,-12.251 h 22.044 v 9.633 h -22.044 z m -39.078,-0.087 h 25.191 v 9.697 h -25.191 z m 36.438,-42.594 v 52.197 c -2.944,0.294 -5.663,0.331 -8.471,0.045 v -52.242 z m 19.951,241.057 c 0.687,8.134 -1.934,14.48 -8.856,18.31 -5.733,3.173 -12.097,4.339 -17.838,0.262 -6.178,-4.385 -9.451,-10.469 -7.729,-18.572 z m 4.838,-204.263 h -22.261 v -36.784 h 22.261 z m -61.13,-36.752 h 25.167 v 36.521 h -25.167 z m -285.706,59.511 c -1.191,0.067 -2.289,0.097 -3.381,0.199 -1.307,0.122 -2.29,0.736 -2.643,2.071 -0.195,0.736 -0.262,1.548 0.608,1.905 0.801,0.329 1.177,-0.245 1.385,-0.925 0.35,-1.146 1.302,-1.177 2.238,-1.204 1.571,-0.046 3.143,-0.088 4.715,-0.088 4.095,10e-4 4.558,0.573 4.093,4.724 -0.185,1.648 -0.842,2.52 -2.664,2.337 -2.206,-0.221 -4.43,-0.264 -6.645,-0.41 -5.74,-0.377 -6.078,-0.075 -6.266,5.71 -0.012,0.369 0,0.74 0.009,1.11 0.046,2.085 1.08,3.275 3.181,3.465 1.549,0.14 3.1,0.25 4.512,0.363 0.9,1.002 0.098,3.017 1.73,3 1.853,-0.019 0.459,-2.047 1.587,-3.175 0.948,0 2.227,0.036 3.504,-0.009 1.505,-0.053 2.664,-0.698 3.255,-2.157 0.226,-0.558 0.228,-1.142 -0.289,-1.502 -0.556,-0.386 -1.114,-0.137 -1.391,0.415 -0.741,1.479 -2.078,1.315 -3.368,1.315 -2.03,0.002 -4.059,-0.01 -6.089,-0.002 -4.641,0.021 -5.127,-0.609 -4.299,-5.115 0.237,-1.289 0.764,-1.701 2.027,-1.599 3.131,0.254 6.277,0.334 9.402,0.646 1.898,0.189 2.854,-0.534 3.547,-2.27 0.773,-1.939 0.005,-3.986 0.666,-6.248 3.645,2.398 7.524,3.33 11.79,3.237 0.523,5.656 -0.124,10.87 -2.488,15.839 -1.313,2.759 -3.239,4.91 -5.953,6.359 -6.174,3.295 -12.694,3.976 -19.35,2.09 -3.339,-0.947 -6.879,-2.119 -9.195,-4.856 -5.447,-6.435 -6.549,-14.479 -4.609,-22.011 1.995,-7.751 7.703,-13.116 16.459,-14.047 2.392,-0.254 3.455,0.437 3.411,2.82 -11.316,2.328 -15.006,4.49 -14.816,9.363 2.945,-4.498 7.018,-6.388 11.606,-7.397 3.93,-0.864 3.973,-0.853 5.659,2.907 -2.12,0.027 -1.563,1.837 -1.938,3.14 m 22.329,-38.687 c 7.141,0.242 13.472,2.027 16.787,8.839 2.541,5.222 3.438,10.886 2.238,16.731 -1.805,8.794 -6.403,13.59 -14.73,15.217 -1.353,0.264 -2.746,0.337 -4.125,0.454 -8.046,0.686 -18.809,-1.951 -21.699,-12.986 -1.265,-4.829 -2.227,-9.975 -0.787,-14.485 2.258,-7.068 7.184,-12.236 15.276,-13.085 2.387,-0.25 4.777,-0.466 7.04,-0.685 m 327.553,-36.423 c -120.274,0.574 -240.499,0.567 -360.755,-0.032 3.522,-1.987 7.217,-2.949 11.279,-2.942 42.082,0.067 84.165,0.075 126.247,0.073 70.754,-0.003 141.508,-0.019 212.262,-0.06 3.951,-0.003 7.594,0.884 10.967,2.961 m 9.95,145.069 c -0.179,2.671 -0.113,5.386 -0.58,8.006 -2.481,13.934 -7.191,19.598 -19.83,22.937 -6.963,1.84 -13.897,1.418 -20.738,-0.801 -7.4,-2.4 -12.578,-6.909 -15.126,-14.536 -1.705,-5.101 -1.966,-10.259 -2.403,-15.508 -0.659,-7.918 2.595,-14.278 8.002,-19.247 9.369,-8.609 20.445,-10.153 32.536,-6.307 9.482,3.016 19.566,14.569 18.139,25.456 M -21.46,-49.982 c 1.392,2.792 3.129,4.716 4.767,6.714 2.91,3.551 2.896,3.533 6.666,1.086 2.829,-1.837 5.82,-3.341 9.3,-4.54 -0.496,4.834 -1.731,9.068 -2.942,13.318 -0.811,2.846 -0.286,3.325 2.561,2.953 3.727,-0.488 7.464,-0.901 11.447,-1.376 -0.661,3.457 -2.392,6.275 -2.806,9.442 2.272,2.126 4.514,4.224 6.905,6.462 -2.465,1.535 -4.708,2.932 -6.875,4.282 0.379,3.335 2.112,6.146 2.763,9.566 -3.292,-0.392 -6.29,-0.817 -9.302,-1.092 -5.662,-0.517 -5.65,-0.486 -4.008,5.134 1.015,3.469 2.008,6.948 2.145,10.868 -3.819,-1.481 -7.156,-3.039 -10.153,-5.225 -1.928,-1.407 -3.412,-1.347 -4.894,0.714 -1.745,2.428 -3.9,4.548 -5.378,7.274 -1.895,-2.354 -3.616,-4.513 -5.359,-6.654 -2.482,-3.049 -2.675,-3.06 -6.079,-0.822 -2.899,1.905 -5.965,3.46 -9.532,4.702 0.486,-4.836 1.731,-9.068 2.939,-13.318 0.809,-2.845 0.283,-3.329 -2.556,-2.958 -3.728,0.488 -7.465,0.901 -11.538,1.388 1.079,-3.444 2.052,-6.546 3.001,-9.572 -2.574,-1.784 -4.898,-3.395 -7.444,-5.159 2.631,-2.001 5.015,-3.814 7.456,-5.67 -0.982,-3.03 -1.957,-6.041 -3.032,-9.356 3.901,0.441 7.374,0.798 10.836,1.235 3.888,0.491 4.149,0.205 3.02,-3.717 -1.143,-3.97 -2.297,-7.936 -2.629,-12.391 3.913,1.361 7.321,3.113 10.478,5.345 1.768,1.25 3.128,1.111 4.466,-0.696 1.855,-2.506 4.091,-4.726 5.777,-7.937 m 316.627,71.456 h 46.881 c -6.351,17.913 -8.188,36.1 -7.894,54.655 h -56.526 c -0.104,-11.094 0.767,-22.136 -3.03,-32.908 3.735,-0.281 7.027,-0.604 10.327,-0.76 5.138,-0.242 7.38,-2.187 8.872,-7.095 1.373,-4.512 0.74,-9.166 1.37,-13.892 m -327.568,-195.64 c 122.879,-0.404 245.503,-0.405 368.034,-0.002 v 9.767 H 176.3 c -0.583,-4.719 -1.402,-5.441 -6.181,-5.57 -12.296,-0.331 -24.591,-0.331 -36.887,0 -4.772,0.129 -5.586,0.847 -6.171,5.512 H -32.401 Z M 292.051,21.399 c -0.252,5.088 0.025,9.994 -1.666,14.696 -0.684,1.901 -2.056,3.039 -4.113,3.211 -2.856,0.238 -5.715,0.447 -8.574,0.657 -8.863,0.653 -17.658,-0.179 -26.517,-1.039 -0.165,-2.642 -0.206,-5.134 -0.494,-7.596 -0.844,-7.197 1.093,-13.908 3.417,-20.563 0.51,-1.46 1.174,-2.69 3.124,-2.366 0.712,0.119 1.614,-0.092 1.535,-1.122 -0.078,-0.998 -0.988,-1.052 -1.701,-0.969 -2.548,0.298 -4.958,1.07 -5.921,3.721 -1.831,5.036 -3.347,10.184 -3.483,15.594 -0.313,12.512 1.498,24.882 2.662,37.292 0.481,5.132 1.86,10.155 2.069,15.525 h -87.151 c -0.08,-0.563 -0.177,-1.001 -0.199,-1.442 -0.594,-11.736 -0.9,-23.489 -0.478,-35.223 0.394,-10.969 0.529,-21.998 3.574,-32.719 1.576,-5.55 4.938,-9.142 10.321,-11 4.235,-1.462 8.596,-2.092 13.061,-2.242 9.605,-0.323 19.208,-0.765 28.814,-1.049 3.608,-0.106 7.211,-1.058 11.137,-0.349 -2.383,2.894 -3.621,5.97 -3.86,9.346 -0.173,2.45 -1.33,2.863 -3.573,2.846 -14.243,-0.108 -28.486,-0.067 -42.73,-0.035 -1.563,0.004 -3.133,0.208 -4.685,0.426 -0.768,0.108 -1.408,0.6 -1.333,1.497 0.063,0.751 0.641,1.091 1.345,1.155 0.551,0.051 1.108,0.039 1.662,0.039 14.984,-0.009 29.967,-0.029 44.951,-0.015 1.063,10e-4 2.212,-0.344 3.319,0.521 -0.86,4.859 -0.237,9.847 -0.6,14.671 -0.98,0.594 -1.835,0.429 -2.638,0.388 -15.442,-0.777 -30.882,0.007 -46.322,0.038 -2.045,0.004 -4.081,0.108 -6.05,0.63 -0.851,0.226 -2.148,0.208 -2.068,1.785 2.031,0.798 4.145,0.774 6.254,0.752 16.179,-0.172 32.355,-0.969 48.541,-0.136 2.098,0.108 2.971,0.684 2.964,2.849 -0.008,2.396 0.311,4.793 0.476,7.19 0.065,0.941 0.079,2.077 1.267,2.129 1.366,0.06 1.496,-1.145 1.523,-2.185 0.061,-2.311 0.1,-4.621 -0.271,-6.92 -0.142,-0.877 -0.477,-1.794 0.272,-2.924 3.173,0 6.485,0.011 9.796,-0.006 1.2,-0.006 2.734,0.091 2.731,-1.56 -0.002,-1.651 -1.54,-1.545 -2.737,-1.552 -3.392,-0.019 -6.783,-0.007 -10.38,-0.007 -0.278,-4.884 -0.201,-9.386 0.096,-13.892 0.089,-1.338 0.813,-1.625 2.041,-1.595 2.956,0.075 5.917,0.071 8.872,-0.015 1.072,-0.031 2.502,-0.145 2.399,-1.671 -0.108,-1.579 -1.532,-1.265 -2.609,-1.268 -3.208,-0.009 -6.417,-0.003 -9.885,-0.003 0.482,-4.049 0.383,-8.259 3.97,-10.208 3.42,-1.857 7.275,-3.406 11.515,-2.609 4.639,0.871 8.843,2.097 11.048,7.006 2.353,5.239 4.361,10.55 5.874,16.101 1.465,5.375 3.816,10.441 7.434,14.759 3.603,4.3 10.263,3.679 13.219,-1.04 1.525,-2.434 1.852,-5.174 2.276,-7.963 2.104,-0.5 4.15,-0.987 6.479,-1.541 M 11.843,-152.709 c 1.15,-0.812 2.2,-0.55 3.193,-0.55 82.411,-0.015 164.821,-0.008 247.232,-0.069 2.377,-0.002 3.167,0.522 3.143,3.046 -0.128,13.502 -0.015,27.007 -0.101,40.51 -0.013,2.077 0.669,2.83 2.675,2.766 2.565,-0.081 5.134,-0.019 7.804,-0.019 0.179,1.72 0.479,3.157 1.493,4.112 1.388,1.306 1.284,2.372 0.492,4.05 -2.944,6.236 -0.646,11.327 3.111,15.801 0.829,0.986 2.017,1.13 3.256,1.27 2.596,0.294 4.768,-1.209 7.377,-1.691 0,7.197 -0.197,14.226 0.071,21.238 0.17,4.465 -0.331,8.363 -4.02,11.425 -1.079,0.896 -1.604,2.451 -2.406,3.689 -3.901,6.023 -4.728,12.693 -4.21,19.668 0.618,8.321 2.882,15.965 8.792,22.192 0.737,0.776 1.741,1.478 1.748,2.72 0.022,4.225 0.008,8.45 0.008,12.961 -8.984,0 -17.654,-0.006 -26.325,0.008 -1.01,0.002 -1.528,-0.508 -1.755,-1.415 -0.638,-2.541 -2.241,-4.685 -3.071,-7.104 -2.812,-8.195 -9.15,-10.76 -16.98,-10.969 -11.015,-0.293 -21.981,0.897 -32.976,1.264 -8.775,0.293 -17.592,0.092 -26.298,1.363 -9.307,1.358 -16.79,5.258 -19.028,15.445 -0.425,1.934 -1.922,1.398 -3.106,1.398 -49.02,0.022 -98.039,0.023 -147.058,0.006 -0.971,0 -2.038,0.326 -3.06,-0.591 0,-2.37 -0.007,-4.855 0.005,-7.34 0.003,-0.542 -0.066,-1.166 0.493,-1.495 1.792,-1.054 1.256,-2.743 1.036,-4.213 -0.231,-1.54 -0.793,-3.033 -1.249,-4.535 -0.612,-2.013 -0.372,-3.542 1.861,-4.461 1.258,-0.518 2.379,-1.422 3.479,-2.26 1.503,-1.146 1.763,-2.566 -0.049,-3.513 -5.219,-2.728 -6.811,-6.543 -4.221,-12.016 0.664,-1.402 0.877,-3.266 -0.348,-4.417 -0.903,-0.849 -1.012,-1.63 -1.012,-2.637 10e-4,-19.332 0.03,-38.663 -0.044,-57.994 -0.007,-1.855 0.737,-2.692 2.322,-3.158 3.539,-1.041 5.986,-3.494 8.277,-6.235 2.566,-3.069 3.097,-6.864 3.995,-10.513 2.669,-10.842 -2.943,-22.664 -12.934,-27.42 -0.857,-0.408 -1.655,-0.706 -1.631,-1.916 0.058,-2.851 0.019,-5.705 0.019,-8.401 m 289.284,91.475 c 0.328,-13.023 -0.478,-25.614 0.517,-38.275 1.8,0.249 1.706,1.296 2.033,1.968 2.25,4.615 5.342,8.443 10.05,10.716 5.104,2.464 8.314,0.869 9.243,-4.65 0.592,-3.511 1.634,-6.996 0.085,-10.626 -0.684,-1.602 1.63,-2.803 1.341,-4.519 1.164,-0.616 2.314,-0.452 3.379,-0.34 2.726,0.286 3.556,-0.924 3.543,-3.527 -0.072,-15.353 -0.036,-30.705 -0.036,-46.058 v -4.149 c 0.549,-0.311 0.698,-0.465 0.856,-0.475 6.043,-0.38 6.044,-0.378 6.037,-6.579 -0.003,-2.496 -0.092,-4.994 0.011,-7.485 0.064,-1.527 -0.724,-2.408 -1.814,-3.19 -3.553,-2.553 -7.515,-4.024 -11.892,-4.025 -103.028,-0.034 -206.056,-0.043 -309.084,-0.052 -12.115,-0.001 -24.23,0.038 -36.346,0.034 -2.252,0 -4.412,0.441 -6.516,1.17 -6.253,2.165 -7.121,3.323 -7.309,9.766 -0.064,2.218 0.066,4.445 -0.064,6.657 -0.159,2.7 1.183,3.628 3.669,3.62 7.768,-0.028 15.537,-0.004 23.306,-0.001 3.219,0.001 6.439,0 9.854,0 v 17.567 c -6.882,0.712 -13.444,1.9 -18.033,8.039 -4.442,5.942 -4.015,12.629 -3.833,19.31 -1.486,0.904 -3.029,0.52 -4.456,0.794 -9.747,1.878 -14.539,8.62 -15.965,17.915 -0.793,5.173 -0.455,10.467 1.596,15.553 3.531,8.759 10.276,12.916 19.253,14.077 7.885,1.02 15.104,-0.443 21.011,-6.269 0.984,1.353 0.589,2.588 0.598,3.735 0.044,5.548 -0.092,11.101 0.079,16.645 0.065,2.109 -0.799,2.93 -2.611,3.516 -4.408,1.423 -8.719,3.079 -12.04,6.831 -2.329,-2.785 -4.598,-5.43 -6.789,-8.139 -2.068,-2.559 -3.979,-2.6 -5.263,0.343 -1.345,3.082 -4.129,4.862 -5.826,7.914 -3.765,-3.956 -8.399,-5.697 -13.114,-7.278 -0.849,-0.285 -1.719,-0.905 -2.592,-0.107 -0.928,0.846 -0.554,1.851 -0.25,2.829 1.424,4.572 1.67,9.394 3.459,14.254 -3.777,-0.385 -7.049,-0.801 -10.334,-1.03 -3.195,-0.222 -3.864,0.486 -3.3,3.645 0.371,2.079 1.042,4.12 1.75,6.116 0.417,1.176 0.228,1.874 -0.822,2.525 -1.726,1.071 -3.414,2.209 -5.071,3.384 -2.092,1.483 -2.087,2.843 -0.025,4.339 0.898,0.651 1.838,1.242 2.755,1.867 3.64,2.486 3.64,2.487 2.222,6.859 -2.084,6.423 -1.142,7.546 5.526,6.65 2.258,-0.303 4.526,-0.532 7.048,-0.825 -1.079,4.878 -2.065,9.45 -3.117,14.008 -0.248,1.075 -0.861,2.144 0.159,3.085 0.968,0.892 1.924,0.114 2.842,-0.203 4.545,-1.572 9.125,-3.089 12.64,-7.147 2.192,2.899 5.032,5.047 6.283,8.456 0.476,1.296 0.814,2.893 2.633,2.707 1.962,-0.2 3.835,-1.249 4.041,-3.237 0.368,-3.56 3.316,-5.115 4.853,-7.745 8.175,6.01 13.942,8.287 16.625,6.468 4.512,5.476 10.716,6.513 17.394,6.507 45.593,-0.04 91.186,-0.026 136.779,-0.029 1.366,0 2.732,0 4.061,0 0,2.68 0.149,5.062 -0.025,7.421 -0.979,13.305 -0.421,26.622 -0.422,39.935 0,3.446 0.803,6.77 1.569,10.096 0.436,1.89 2.007,1.621 3.356,1.622 14.15,0.017 28.3,0.013 42.451,0.013 14.427,0 28.855,-0.057 43.282,0.046 2.692,0.019 3.551,-0.662 3.167,-3.479 -1.52,-11.159 -2.829,-22.348 -4.211,-33.527 -0.088,-0.715 -0.131,-1.435 -0.204,-2.257 2.408,-0.699 4.72,-0.293 6.953,-0.016 3.597,0.446 7.201,0.677 10.791,0.436 2.569,-0.173 3.451,1.069 3.849,3.234 1.154,6.281 2.062,12.574 1.804,18.999 -0.14,3.508 0.056,7.029 -0.045,10.541 -0.073,2.499 1.024,3.549 3.462,3.499 2.751,-0.056 5.503,-0.013 8.826,-0.013 -1.535,8.664 1.398,15.209 7.991,20.241 2.817,2.15 5.855,3.375 9.419,3.541 4.256,0.199 8.317,-0.408 12.076,-2.434 3.825,-2.061 6.853,-4.984 8.977,-8.816 2.093,-3.774 1.521,-8.096 2.496,-12.147 1.738,-0.616 3.501,-0.27 5.227,-0.3 3.768,-0.066 4.041,-0.277 4.113,-4.131 0.076,-4.065 0.29,-8.133 0.36,-12.187 0.225,-12.97 2.91,-25.464 6.425,-37.853 1.823,-6.425 1.428,-6.929 -5.284,-6.931 -13.222,-0.003 -26.443,0.078 -39.664,0.114 -0.166,0.001 -0.333,-0.123 -0.74,-0.285 1.289,-2.302 3.009,-4.438 3.277,-7.127 0.264,-2.652 0.343,-5.323 -0.288,-7.785 0.955,-1.09 1.878,-0.669 2.749,-0.48 12.967,2.813 24.606,-0.223 34.085,-9.256 6.539,-6.232 8.847,-14.748 8.853,-23.776 0.004,-6.246 -2.083,-12.001 -4.663,-17.501 -1.522,-3.246 -4.378,-5.686 -7.321,-7.841 -10.065,-7.372 -21.045,-9.51 -33.72,-5.505" style="fill:#1b1464;fill-opacity:1;fill-rule:nonzero;stroke:none" id="path200"/>
        </g>
        <g id="g202" transform="translate(95.7019,361.7691)">
          <path d="m 0,0 c -15.995,0 -31.99,-0.002 -47.985,0.001 -5.252,0.002 -5.799,-0.439 -6.856,-5.655 -0.11,-0.543 -0.235,-1.094 -0.248,-1.644 -0.126,-4.896 -0.539,-9.791 -0.208,-14.692 0.543,-8.019 1.196,-16.026 1.416,-24.07 0.174,-6.367 0.871,-12.716 0.983,-19.097 0.063,-3.645 2.037,-5.528 5.725,-5.801 2.026,-0.151 4.063,-0.217 6.095,-0.214 15.621,0.025 31.243,0.082 46.864,0.116 13.498,0.03 26.996,-0.029 40.493,0.104 4.058,0.04 5.912,2.09 6.071,6.039 0.584,14.494 1.478,28.969 2.308,43.449 0.36,6.295 0.863,12.736 -1.409,18.937 -0.735,2.005 -1.811,2.586 -3.875,2.576 C 32.917,-0.03 16.458,0.005 0,0 m 16.289,-74.357 c -7.667,0 -15.335,-0.064 -23.002,0.014 -13.305,0.135 -26.61,0.334 -39.914,0.556 -5.587,0.093 -8.311,2.984 -8.69,8.632 -0.985,14.648 -1.755,29.309 -2.931,43.949 -0.555,6.911 -0.727,14.042 2.013,20.771 1.082,2.659 2.613,3.992 5.806,3.954 14.141,-0.173 28.285,-0.046 42.428,-0.047 19.402,-0.002 38.805,-0.079 58.207,0.03 2.816,0.016 4.237,-1.167 5.255,-3.505 2.986,-6.865 2.747,-14.193 2.19,-21.286 -1.151,-14.641 -1.943,-29.301 -2.923,-43.95 -0.373,-5.586 -3.145,-8.5 -8.769,-8.541 -9.889,-0.072 -19.78,-0.02 -29.669,-0.02 0,-0.186 0,-0.372 -10e-4,-0.557" style="fill:#1b1464;fill-opacity:1;fill-rule:nonzero;stroke:none" id="path204"/>
        </g>
        <g id="g206" transform="translate(377.6031,2.6104)">
          <path d="m 0,0 c 11.274,0 22.548,0.002 33.822,-0.001 4.442,-0.001 5.418,0.774 5.724,5.299 0.281,4.144 0.339,8.3 0.057,12.465 -0.594,8.753 -1.151,17.511 -1.526,26.276 -0.272,6.354 -0.917,7.146 -7.257,7.2 C 30.173,51.245 29.526,51.211 28.88,51.21 20.101,51.201 11.322,51.19 2.543,51.188 -9.1,51.184 -20.744,51.255 -32.386,51.155 c -4.476,-0.039 -5.415,-1.293 -5.625,-5.682 -0.444,-9.316 -1.048,-18.625 -1.528,-27.94 -0.257,-4.974 -0.579,-9.963 0.602,-14.885 0.472,-1.968 1.553,-2.733 3.728,-2.71 C -23.473,0.058 -11.736,-0.005 0,0 m 0.279,53.155 c 10.812,0 21.625,0.067 32.437,-0.03 5.057,-0.045 6.708,-1.853 7.046,-6.866 0.688,-10.23 1.573,-20.451 2.083,-30.69 0.251,-5.037 0.532,-10.16 -1.362,-15.062 -0.829,-2.143 -2.06,-3.159 -4.537,-3.115 -11.825,0.207 -23.652,0.034 -35.481,0.231 -12.101,0.201 -24.211,-0.038 -36.315,-0.232 -2.458,-0.04 -3.727,0.914 -4.569,3.072 -1.911,4.898 -1.63,10.022 -1.38,15.058 0.518,10.424 1.404,20.83 2.108,31.245 0.288,4.255 2.128,6.301 6.42,6.34 11.182,0.103 22.366,0.035 33.549,0.035 0,0.005 0,0.009 0.001,0.014" style="fill:#1b1464;fill-opacity:1;fill-rule:nonzero;stroke:none" id="path208"/>
        </g>
        <g id="g210" transform="translate(67.0333,24.7569)">
          <path d="m 0,0 c 2.942,8.12 6.857,15.441 10.093,23.061 2.195,5.169 -0.27,10.223 -5.68,11.835 -5.476,1.631 -10.589,0.216 -15.385,-2.516 -2.953,-1.682 -3.711,-4.426 -3.15,-7.62 0.644,-3.676 1.916,-7.107 4.059,-10.195 C -6.805,9.873 -3.567,5.166 0,0 M -1,38.605 C 1.807,38.536 3.816,38.648 5.806,37.962 12.699,35.586 16.129,28.576 13.242,21.896 9.62,13.514 5.378,5.405 2.347,-3.24 1.545,-5.527 -0.577,-5.831 -1.787,-3.7 c -4.02,7.08 -9.577,13.147 -13.296,20.403 -1.492,2.909 -2.192,6.07 -2.409,9.325 -0.315,4.74 2.012,7.935 6.094,9.947 3.507,1.728 7.154,3.032 10.398,2.63" style="fill:#1b1464;fill-opacity:1;fill-rule:nonzero;stroke:none" id="path212"/>
        </g>
        <g id="g214" transform="translate(439.9124,128.2168)">
          <path d="m 0,0 c -1.101,-1.464 -2.54,-1.224 -3.889,-1.109 -8.012,0.687 -15.942,1.995 -23.879,3.239 -0.859,0.135 -1.628,0.352 -1.905,1.345 0.697,1.708 2.242,1.555 3.538,1.389 C -18.169,3.84 -10.216,2.715 -2.261,1.605 -1.332,1.475 -0.444,1.195 0,0" style="fill:#1b1464;fill-opacity:1;fill-rule:nonzero;stroke:none" id="path216"/>
        </g>
        <g id="g218" transform="translate(438.3302,150.8119)">
          <path d="M 0,0 C -9.607,-3.088 -19.498,-4.831 -29.927,-6.791 -27.647,-2.72 -3.259,2.806 0,0" style="fill:#1b1464;fill-opacity:1;fill-rule:nonzero;stroke:none" id="path220"/>
        </g>
        <g id="g222" transform="translate(407.8612,156.466)">
          <path d="m 0,0 c -1.26,0.104 -1.636,0.751 -1.396,1.714 0.256,1.025 1.003,1.766 1.806,2.389 4.948,3.845 9.909,7.673 14.886,11.481 0.714,0.546 1.629,1.294 2.44,0.394 0.911,-1.012 0.072,-1.964 -0.692,-2.59 C 14.622,11.404 12.105,9.536 9.648,7.595 6.973,5.481 4.327,3.331 1.66,1.208 1.092,0.756 0.486,0.352 0,0" style="fill:#1b1464;fill-opacity:1;fill-rule:nonzero;stroke:none" id="path224"/>
        </g>
        <g id="g226" transform="translate(40.8228,193.3525)">
          <path d="m 0,0 c -0.441,-1.538 -0.945,-3.484 -1.571,-5.39 -0.276,-0.84 -0.972,-1.382 -1.932,-1.117 -1.09,0.3 -1.374,1.142 -1.118,2.156 0.447,1.772 0.982,3.523 1.411,5.299 0.253,1.044 0.566,2.129 1.851,1.898 C -0.165,2.632 -0.053,1.476 0,0" style="fill:#1b1464;fill-opacity:1;fill-rule:nonzero;stroke:none" id="path228"/>
        </g>
        <g id="g230" transform="translate(41.6049,275.1073)">
          <path d="m 0,0 c 0.041,-1.273 -0.093,-1.995 -0.982,-2.212 -0.82,-0.2 -1.468,0.194 -1.846,0.883 -1.118,2.037 -1.486,4.32 -1.968,6.551 -0.142,0.653 0.345,1.232 1.051,1.421 0.988,0.265 1.686,-0.316 1.973,-1.096 C -1.048,3.579 -0.486,1.552 0,0" style="fill:#1b1464;fill-opacity:1;fill-rule:nonzero;stroke:none" id="path232"/>
        </g>
        <g id="g234" transform="translate(60.33,194.9811)">
          <path d="M 0,0 C -0.009,0.931 0.047,1.598 0.796,1.86 1.609,2.143 2.354,1.843 2.684,1.119 3.524,-0.727 4.294,-2.61 4.981,-4.518 5.256,-5.283 4.871,-6.003 4.085,-6.324 3.304,-6.643 2.562,-6.402 2.148,-5.694 1.067,-3.85 0.374,-1.849 0,0" style="fill:#1b1464;fill-opacity:1;fill-rule:nonzero;stroke:none" id="path236"/>
        </g>
        <g id="g238" transform="translate(9.9974,222.4219)">
          <path d="m 0,0 c -0.819,-2.161 -6.171,-5.392 -7.896,-5.138 -0.594,0.087 -1.053,0.353 -1.208,0.951 -0.148,0.57 -0.03,1.182 0.481,1.465 C -6.031,-1.288 -3.476,0.321 0,0" style="fill:#1b1464;fill-opacity:1;fill-rule:nonzero;stroke:none" id="path240"/>
        </g>
        <g id="g242" transform="translate(21.0108,205.2048)">
          <path d="m 0,0 c -1.105,-2.149 -2.294,-4.545 -4.27,-6.414 -0.408,-0.386 -1.053,-0.364 -1.523,0.059 -0.469,0.422 -0.489,1.031 -0.283,1.543 0.905,2.25 2.209,4.253 4.003,5.899 0.394,0.362 0.922,0.64 1.519,0.334 C -0.082,1.18 0.065,0.774 0,0" style="fill:#1b1464;fill-opacity:1;fill-rule:nonzero;stroke:none" id="path244"/>
        </g>
        <g id="g246" transform="translate(15.46,267.4978)">
          <path d="M 0,0 C 1.742,-0.459 3.434,-1.502 4.713,-3.159 5.148,-3.722 5.118,-4.389 4.653,-4.944 4.196,-5.49 3.559,-5.721 2.928,-5.326 c -1.478,0.922 -2.95,1.864 -4.346,2.904 -0.486,0.362 -0.814,1.03 -0.507,1.73 C -1.61,0.026 -0.969,0.084 0,0" style="fill:#1b1464;fill-opacity:1;fill-rule:nonzero;stroke:none" id="path248"/>
        </g>
        <g id="g250" transform="translate(7.3092,247.1846)">
          <path d="M 0,0 C 0.024,-0.882 -0.425,-1.488 -1.283,-1.407 -3.552,-1.193 -5.443,-0.088 -6.95,1.562 -7.59,2.263 -7.347,3.13 -6.447,3.617 -5.071,4.362 -0.082,1.55 0,0" style="fill:#1b1464;fill-opacity:1;fill-rule:nonzero;stroke:none" id="path252"/>
        </g>
        <g id="g254" transform="translate(62.1125,279.5749)">
          <path d="M 0,0 C 0.249,0.693 0.621,1.919 1.132,3.085 1.481,3.883 2.136,4.468 3.104,4.103 4.106,3.726 4.061,2.804 3.867,2.002 3.587,0.849 3.185,-0.277 2.774,-1.393 2.467,-2.227 1.881,-2.911 0.918,-2.615 -0.022,-2.326 -0.097,-1.424 0,0" style="fill:#1b1464;fill-opacity:1;fill-rule:nonzero;stroke:none" id="path256"/>
        </g>
        <g id="g258" transform="translate(280.2761,302.0006)">
          <path d="m 0,0 c 8.587,0.303 17.175,0.614 25.763,0.897 0.821,0.028 1.669,-0.02 2.466,-0.202 0.657,-0.15 1.114,-0.671 1.049,-1.433 -0.052,-0.611 -0.434,-1.052 -0.995,-1.201 -0.614,-0.163 -1.267,-0.236 -1.905,-0.248 -15.522,-0.282 -31.032,-1.161 -46.567,-0.889 -3.317,0.059 -6.642,-0.33 -9.964,-0.498 -0.829,-0.042 -1.665,-0.073 -2.492,-0.02 -0.957,0.06 -1.957,0.259 -1.859,1.528 0.079,1.026 0.926,1.287 1.814,1.336 3.688,0.204 7.375,0.522 11.065,0.569 7.208,0.09 14.419,0.026 21.629,0.026 C 0.003,-0.09 0.001,-0.045 0,0" style="fill:#1b1464;fill-opacity:1;fill-rule:nonzero;stroke:none" id="path260"/>
        </g>
        <g id="g262" transform="translate(277.4418,311.6882)">
          <path d="m 0,0 c 9.722,-0.65 18.03,-0.382 26.336,-0.403 1.124,-0.003 3.046,0.797 3.018,-1.235 -0.023,-1.655 -1.839,-1.538 -3.086,-1.564 -5.537,-0.116 -11.078,-0.321 -16.61,-0.2 -12.18,0.264 -24.352,0.708 -36.525,-0.28 -1.512,-0.123 -4.091,-0.918 -4.32,1.069 -0.276,2.387 2.431,1.545 3.863,1.741 C -17.777,0.439 -8.168,-0.022 0,0" style="fill:#1b1464;fill-opacity:1;fill-rule:nonzero;stroke:none" id="path264"/>
        </g>
        <g id="g266" transform="translate(269.5256,316.4593)">
          <path d="M 0,0 C 0.41,1.158 1.454,1.262 2.296,1.295 5.965,1.439 9.64,1.46 13.312,1.497 14.222,1.507 15.011,1.141 15.057,0.131 15.096,-0.718 14.471,-1.256 13.65,-1.256 9.52,-1.257 5.39,-1.22 1.261,-1.139 0.758,-1.129 0.177,-0.876 0,0" style="fill:#1b1464;fill-opacity:1;fill-rule:nonzero;stroke:none" id="path268"/>
        </g>
        <g id="g270" transform="translate(361.8998,321.449)">
          <path d="m 0,0 c -0.545,-1.582 -1.81,-2.072 -3.229,-2.078 -1.058,-0.005 -1.73,0.8 -1.617,1.831 0.161,1.465 1.132,2.296 2.629,2.235 C -0.999,1.939 -0.181,1.291 0,0" style="fill:#1b1464;fill-opacity:1;fill-rule:nonzero;stroke:none" id="path272"/>
        </g>
        <g id="g274" transform="translate(401.9018,280.4754)">
          <path d="m 0,0 c -0.026,-1.068 0.019,-2.304 -1.378,-2.278 -1.253,0.023 -1.551,1.141 -1.502,2.227 0.048,1.076 -0.052,2.55 1.402,2.56 C -0.014,2.519 -0.211,0.994 0,0" style="fill:#1b1464;fill-opacity:1;fill-rule:nonzero;stroke:none" id="path276"/>
        </g>
        <g id="g278" transform="translate(396.298,321.4189)">
          <path d="M 0,0 C 0.094,1.146 0.644,1.842 1.694,1.955 2.776,2.072 3.51,1.474 3.601,0.413 3.702,-0.771 3.009,-1.56 1.832,-1.619 0.763,-1.672 0.202,-0.928 0,0" style="fill:#1b1464;fill-opacity:1;fill-rule:nonzero;stroke:none" id="path280"/>
        </g>
        <g id="g282" transform="translate(383.6416,234.0325)">
          <path d="M 0,0 C 1.259,1.378 0.01,4.37 2.446,4.274 4.826,4.18 3.127,1.655 4.021,0.164 5.595,-0.556 7.566,0.01 9.452,-0.21 c 1.871,-0.219 3.399,-0.868 4.275,-2.619 0.426,-0.852 0.795,-1.816 -0.209,-2.478 -1.037,-0.684 -1.736,-0.039 -2.194,0.892 -0.567,1.153 -1.526,1.508 -2.732,1.496 -4.522,-0.047 -9.045,-0.12 -13.567,-0.09 -2.183,0.014 -3.086,-1.004 -2.817,-3.075 0.921,-7.084 -0.691,-6.379 6.526,-5.765 3.59,0.306 7.198,0.431 10.8,0.531 2.388,0.067 3.807,-1.494 4.143,-4.925 0.232,-2.376 0.048,-4.802 -0.076,-7.199 -0.089,-1.709 -1.168,-2.689 -2.835,-2.902 -1.373,-0.175 -2.765,-0.298 -4.147,-0.282 -1.397,0.016 -2.345,-0.251 -2.318,-1.925 0.017,-1.055 -0.186,-2.227 -1.574,-2.114 -1.371,0.113 -1.302,1.325 -1.303,2.359 v 1.362 c -1.594,0.767 -3.201,0.272 -4.735,0.479 -2.256,0.304 -3.844,1.311 -4.037,3.784 -0.07,0.895 0.185,1.702 1.165,1.952 0.876,0.224 1.498,-0.282 1.639,-1.082 0.326,-1.852 1.623,-1.988 3.101,-1.986 3.236,0.005 6.472,-0.005 9.708,-0.052 1.72,-0.025 2.6,0.693 2.493,2.477 -0.023,0.365 0.067,0.736 0.089,1.105 0.331,5.548 -0.296,6.207 -5.82,5.908 -3.507,-0.189 -7.008,-0.484 -10.514,-0.695 -3.376,-0.203 -4.36,0.612 -4.712,3.92 -0.205,1.927 -0.453,3.864 -0.439,5.795 0.022,3.183 1.341,4.541 4.471,4.848 C -4.064,-0.285 -1.954,-0.153 0,0" style="fill:#1b1464;fill-opacity:1;fill-rule:nonzero;stroke:none" id="path284"/>
        </g>
        <g id="g286" transform="translate(409.5294,218.3714)">
          <path d="m 0,0 c -1.138,15.722 -9.259,25.145 -24.661,25.026 -15.123,-0.118 -23.081,-9.512 -24.12,-24.965 -3.015,5.643 0.338,14.952 7,20.612 9.262,7.87 24.672,8.036 34.276,0.37 C -0.582,15.517 2.995,6.046 0,0" style="fill:#1b1464;fill-opacity:1;fill-rule:nonzero;stroke:none" id="path288"/>
        </g>
        <g id="g290" transform="translate(363.9544,208.7592)">
          <path d="m 0,0 c 4.979,-7.541 12.634,-10.256 21.124,-10.257 8.501,0 16.172,2.699 21.516,10.728 0.959,-2.912 -0.379,-4.426 -1.751,-5.806 -3.82,-3.844 -8.672,-5.602 -13.891,-6.335 -8.789,-1.236 -17.171,-0.332 -24.469,5.351 -1.326,1.032 -2.5,2.225 -3.056,3.861 C -0.777,-1.723 -1.298,-0.895 0,0" style="fill:#1b1464;fill-opacity:1;fill-rule:nonzero;stroke:none" id="path292"/>
        </g>
        <g id="g294" transform="translate(74.2492,139.3972)">
          <path d="m 0,0 c 1.053,0.963 0.103,3.233 2.006,3.033 1.489,-0.157 0.395,-1.952 1.005,-2.83 7.606,-1.398 7.627,-1.411 6.631,-4.254 -4.028,3.631 -8.847,1.37 -13.313,1.84 -1.227,0.13 -1.76,-0.585 -1.853,-1.855 -0.306,-4.147 0.295,-4.779 4.377,-4.49 2.579,0.183 5.165,0.26 7.746,0.416 1.213,0.073 2.137,-0.225 2.714,-1.427 1.233,-2.573 0.882,-5.239 0.483,-7.879 -0.174,-1.154 -1.238,-1.517 -2.326,-1.599 -1.195,-0.089 -2.391,-0.169 -3.529,-0.249 -1.147,-0.654 -0.145,-2.605 -1.839,-2.818 -1.527,0.408 -0.585,1.947 -1.291,2.893 -1.049,0.058 -2.146,0.09 -3.237,0.188 -1.306,0.117 -2.292,0.721 -2.659,2.05 -0.203,0.736 -0.275,1.542 0.581,1.917 0.792,0.346 1.193,-0.203 1.397,-0.891 0.34,-1.149 1.28,-1.2 2.22,-1.225 1.662,-0.044 3.326,-0.09 4.989,-0.087 3.479,0.005 5.102,2.84 3.547,6.034 -0.535,1.098 -1.394,1.056 -2.321,0.999 -2.951,-0.182 -5.907,-0.316 -8.85,-0.596 -2.384,-0.227 -3.768,0.552 -3.779,3.117 -0.002,0.366 -0.099,0.732 -0.147,1.098 -0.672,5.155 0.191,6.183 5.438,6.485 0.724,0.042 1.449,0.094 2.01,0.13" style="fill:#1b1464;fill-opacity:1;fill-rule:nonzero;stroke:none" id="path296"/>
        </g>
        <g id="g298" transform="translate(93.2252,128.3993)">
          <path d="m 0,0 c -2.847,12.309 -8.476,17.918 -17.677,17.992 -9.253,0.075 -14.887,-5.47 -17.818,-17.539 -1.903,3.248 -0.113,9.123 3.999,13.122 6.453,6.276 16.736,7.22 24.621,2.26 C -1.189,12.258 1.843,5.617 0,0" style="fill:#1b1464;fill-opacity:1;fill-rule:nonzero;stroke:none" id="path300"/>
        </g>
        <g id="g302" transform="translate(59.6167,121.2672)">
          <path d="M 0,0 C 10.574,-10.111 20.167,-10.117 31.47,-0.258 31.944,-2.276 30.776,-3.428 29.559,-4.425 24.148,-8.861 17.827,-9.423 11.232,-8.458 7.71,-7.943 4.442,-6.7 1.785,-4.204 0.718,-3.201 -0.193,-2.097 0,0" style="fill:#1b1464;fill-opacity:1;fill-rule:nonzero;stroke:none" id="path304"/>
        </g>
        <g id="g306" transform="translate(72.7399,156.6459)">
          <path d="m 0,0 c -3.199,12.517 -8.309,17.753 -17.334,18.03 -3.194,0.099 -6.264,-0.601 -9.021,-2.236 -2.718,-1.612 -5.136,-3.602 -6.715,-6.433 -1.536,-2.754 -2.229,-5.754 -2.346,-8.922 -2.058,4.122 0.13,10.108 4.93,14.186 6.4,5.436 16.539,5.913 23.804,1.119 C -1.142,12.089 1.696,5.75 0,0" style="fill:#1b1464;fill-opacity:1;fill-rule:nonzero;stroke:none" id="path308"/>
        </g>
        <g id="g310" transform="translate(67.9952,342.4735)">
          <path d="M 0,0 V 10.499 C -6.109,9.75 -12.063,9.963 -17.982,9.793 -18.396,6.161 -17.766,3.064 -16.668,0 Z m -8.937,-2.897 c -2.775,0 -5.55,0.005 -8.325,-0.003 -1.22,-0.003 -2.242,0.311 -2.47,1.688 -0.542,3.27 -1.328,6.482 -1.241,9.869 0.064,2.5 1.306,3.723 3.408,3.867 6.357,0.436 12.728,0.168 19.089,-0.11 0.985,-0.043 1.355,-0.88 1.36,-1.8 C 2.902,7.193 2.934,3.771 2.895,0.35 2.869,-1.911 1.729,-2.972 -0.614,-2.883 c -2.771,0.105 -5.549,0.024 -8.323,0.024 z" style="fill:#1b1464;fill-opacity:1;fill-rule:nonzero;stroke:none" id="path312"/>
        </g>
        <g id="g314" transform="translate(54.9388,309.0334)">
          <path d="M 0,0 C 1.077,1.9 2.81,1.737 4.427,1.726 18.18,1.634 31.93,1.837 45.676,2.235 c 2.028,0.059 4.053,0.204 6.079,0.306 1.08,0.054 2.222,-0.057 2.294,-1.378 C 54.12,-0.141 53.007,-0.433 51.93,-0.483 47.69,-0.676 43.45,-0.966 39.208,-1.002 27.302,-1.104 15.395,-1.105 3.488,-1.122 2.325,-1.124 1.049,-1.376 0,0" style="fill:#1b1464;fill-opacity:1;fill-rule:nonzero;stroke:none" id="path316"/>
        </g>
        <g id="g318" transform="translate(75.6475,302.6108)">
          <path d="m 0,0 c 9.362,-0.351 18.646,0.767 27.958,1.401 1.295,0.088 3.498,0.945 3.701,-1.159 0.208,-2.171 -2.09,-1.612 -3.392,-1.764 -14.825,-1.739 -29.714,-1.594 -44.603,-1.415 -0.277,0.003 -0.561,-0.006 -0.83,0.047 -0.967,0.188 -2.305,0.137 -2.22,1.516 0.07,1.143 1.264,1.181 2.187,1.2 3.698,0.077 7.396,0.129 11.095,0.17 C -4.07,0.018 -2.035,0 0,0" style="fill:#1b1464;fill-opacity:1;fill-rule:nonzero;stroke:none" id="path320"/>
        </g>
        <g id="g322" transform="translate(80.4309,320.1198)">
          <path d="m 0,0 c -8.314,-0.057 -16.642,-0.491 -24.933,0.491 -1.091,0.13 -2.587,0.054 -2.54,1.509 0.054,1.686 1.642,1.464 2.808,1.375 15.426,-1.17 30.874,-0.254 46.309,-0.507 0.462,-0.007 0.925,0 1.387,-0.011 0.94,-0.023 1.731,-0.414 1.723,-1.405 C 24.745,0.476 23.96,0.049 23.022,0.037 20.988,0.011 18.954,0.003 16.919,0.001 11.28,-0.003 5.64,0 0,0" style="fill:#1b1464;fill-opacity:1;fill-rule:nonzero;stroke:none" id="path324"/>
        </g>
        <g id="g326" transform="translate(137.3684,321.1193)">
          <path d="M 0,0 C -0.028,2.195 -0.695,2.977 -2.883,2.959 -5.095,2.941 -5.654,1.447 -5.818,-0.285 -5.978,-1.981 -4.176,-3.796 -2.545,-3.603 -0.894,-3.407 0.114,-2.479 0,0 M 2.61,-0.035 C 2.449,-3.86 0.492,-5.89 -2.882,-5.732 c -3.236,0.152 -5.756,2.694 -5.575,5.624 0.218,3.539 2.926,6.139 6.238,5.987 C 1.267,5.72 2.774,3.873 2.61,-0.035" style="fill:#1b1464;fill-opacity:1;fill-rule:nonzero;stroke:none" id="path328"/>
        </g>
        <g id="g330" transform="translate(135.9078,300.9054)">
          <path d="M 0,0 C 1.714,-0.088 2.331,0.799 2.288,2.371 2.237,4.256 1.463,5.638 -0.509,5.808 -2.428,5.974 -3.421,4.707 -3.514,2.947 -3.642,0.526 -1.715,0.308 0,0 m 4.657,2.672 c -0.118,-3.655 -1.617,-5.2 -4.962,-5.116 -3.614,0.091 -5.95,2.211 -5.776,5.244 0.147,2.575 3.379,5.777 5.816,5.764 2.67,-0.015 5.021,-2.828 4.922,-5.892" style="fill:#1b1464;fill-opacity:1;fill-rule:nonzero;stroke:none" id="path332"/>
        </g>
        <g id="g334" transform="translate(137.4897,339.7858)">
          <path d="m 0,0 c -0.36,-1.259 -1.329,-1.404 -2.402,-1.27 -0.855,0.107 -1.851,0.425 -1.764,1.391 0.132,1.473 1.446,1.444 2.56,1.403 C -0.679,1.491 -0.048,1.032 0,0" style="fill:#1b1464;fill-opacity:1;fill-rule:nonzero;stroke:none" id="path336"/>
        </g>
        <g id="g338" transform="translate(134.5785,342.8689)">
          <path d="M 0,0 C -0.858,0.055 -1.827,0.076 -1.849,1.169 -1.874,2.409 -0.814,2.541 0.103,2.533 1.007,2.526 2.132,2.424 2.07,1.192 2.009,-0.036 0.868,0.073 0,0" style="fill:#1b1464;fill-opacity:1;fill-rule:nonzero;stroke:none" id="path340"/>
        </g>
        <g id="g342" transform="translate(365.7035,8.8009)">
          <path d="m 0,0 c -5.268,0.138 -10.516,-0.256 -15.771,-0.531 -1.102,-0.057 -2.819,-0.482 -2.838,1.25 -0.017,1.582 1.64,1.392 2.807,1.503 10.406,0.992 20.841,0.569 31.266,0.62 0.369,0.002 0.738,-0.007 1.108,-0.018 0.97,-0.028 2.024,-0.168 2.034,-1.361 C 18.616,0.301 17.608,0.036 16.617,0.03 13.294,0.009 9.97,0.006 6.647,0.001 4.431,-0.003 2.216,0 0,0" style="fill:#1b1464;fill-opacity:1;fill-rule:nonzero;stroke:none" id="path344"/>
        </g>
        <g id="g346" transform="translate(409.4599,16.3522)">
          <path d="m 0,0 h -12.058 c -0.071,-2.577 -0.303,-4.936 0.209,-7.481 4.31,0.746 8.551,0.234 12.748,0.664 C 1.307,-4.342 0.743,-2.226 0,0 M -5.766,2.264 C -4.66,2.265 -3.538,2.383 -2.451,2.237 -0.906,2.03 1.348,3.144 2.021,1.187 2.998,-1.651 3.652,-4.743 2.654,-7.754 2.341,-8.7 1.066,-8.947 0.027,-8.981 c -4.237,-0.137 -8.471,-0.165 -12.703,0.204 -1.104,0.096 -1.427,0.63 -1.455,1.574 -0.008,0.277 -0.005,0.553 -0.005,0.83 0.017,9.836 -1.309,8.463 8.37,8.637" style="fill:#1b1464;fill-opacity:1;fill-rule:nonzero;stroke:none" id="path348"/>
        </g>
        <g id="g350" transform="translate(362.0296,16.7195)">
          <path d="m 0,0 c -3.995,0.463 -8.247,0.478 -12.503,0.411 -1.118,-0.018 -2.476,-0.11 -2.442,1.475 0.032,1.454 1.355,1.636 2.482,1.614 C -3.868,3.328 4.726,3.114 13.32,2.903 13.686,2.894 14.05,2.79 14.414,2.721 15.276,2.557 16.18,2.235 16.163,1.253 16.142,0.02 15.055,-0.073 14.115,-0.071 9.583,-0.065 5.052,-0.027 0.521,0 0.429,0 0.336,0 0,0" style="fill:#1b1464;fill-opacity:1;fill-rule:nonzero;stroke:none" id="path352"/>
        </g>
        <g id="g354" transform="translate(349.3985,34.4255)">
          <path d="m 0,0 c -1.306,-0.108 -2.079,-0.727 -2.016,-2.075 0.054,-1.163 -0.054,-2.466 1.685,-2.587 1.648,-0.115 2.367,0.816 2.443,2.26 C 2.185,-1.007 1.277,-0.29 0,0 m -3.968,-2.758 c 0.034,2.821 1.385,4.331 3.852,4.304 2.319,-0.024 4.18,-1.761 4.163,-3.885 -0.02,-2.428 -1.985,-4.478 -4.289,-4.472 -2.501,0.005 -3.758,1.373 -3.726,4.053" style="fill:#1b1464;fill-opacity:1;fill-rule:nonzero;stroke:none" id="path356"/>
        </g>
        <g id="g358" transform="translate(348.4396,46.4098)">
          <path d="m 0,0 c -1.25,0.029 -1.709,-0.631 -1.669,-1.74 0.049,-1.371 0.65,-2.374 2.106,-2.419 1.355,-0.043 2.024,0.893 2.026,2.15 C 2.465,-0.387 1.151,-0.219 0,0 M -3.447,-2.572 C -3.283,0.769 -2.022,1.88 0.327,1.775 2.837,1.663 4.559,-0.021 4.351,-2.137 4.17,-3.982 1.787,-6.17 0.026,-6.107 c -2.022,0.072 -3.562,2.104 -3.473,3.535" style="fill:#1b1464;fill-opacity:1;fill-rule:nonzero;stroke:none" id="path360"/>
        </g>
        <g id="g362" transform="translate(403.659,45.5952)">
          <path d="M 0,0 C -1.117,0.169 -2.74,-0.158 -2.731,1.266 -2.72,2.912 -1.03,2.546 0.094,2.562 1.165,2.577 2.752,2.701 2.745,1.321 2.737,-0.363 0.983,0.267 0,0" style="fill:#1b1464;fill-opacity:1;fill-rule:nonzero;stroke:none" id="path364"/>
        </g>
        <g id="g366" transform="translate(405.1541,34.4368)">
          <path d="M 0,0 C -0.788,0.033 -1.618,0.172 -1.575,1.124 -1.524,2.28 -0.513,2.499 0.415,2.595 1.116,2.669 1.763,2.374 1.823,1.61 1.921,0.348 0.87,0.241 0,0" style="fill:#1b1464;fill-opacity:1;fill-rule:nonzero;stroke:none" id="path368"/>
        </g>
        <g id="g370" transform="translate(69.938,48.5834)">
          <path d="m 0,0 c -0.07,-3.399 -0.981,-4.435 -3.872,-4.405 -3.065,0.032 -5.046,1.566 -5.068,3.925 -0.026,2.699 2.3,5.769 4.361,5.753 C -1.575,5.251 0.069,3.358 0,0" style="fill:#1b1464;fill-opacity:1;fill-rule:nonzero;stroke:none" id="path372"/>
        </g>
        <g id="g374" transform="translate(378.7551,312.7699)">
          <path d="M 0,0 C 1.259,1.378 0.01,4.37 2.446,4.274 4.826,4.18 3.127,1.655 4.021,0.164 5.595,-0.556 7.566,0.01 9.452,-0.21 c 1.871,-0.219 3.399,-0.868 4.275,-2.619 0.426,-0.852 0.795,-1.816 -0.209,-2.478 -1.037,-0.684 -1.736,-0.039 -2.194,0.892 -0.567,1.153 -1.526,1.508 -2.732,1.496 -4.522,-0.047 -9.045,-0.12 -13.567,-0.09 -2.183,0.014 -3.086,-1.004 -2.817,-3.075 0.921,-7.084 -0.691,-6.379 6.526,-5.765 3.59,0.306 7.198,0.431 10.8,0.531 2.388,0.067 3.807,-1.494 4.143,-4.925 0.232,-2.376 0.048,-4.803 -0.076,-7.2 -0.089,-1.708 -1.168,-2.688 -2.835,-2.901 -1.373,-0.175 -2.765,-0.298 -4.147,-0.282 -1.397,0.016 -2.345,-0.251 -2.318,-1.925 0.017,-1.055 -0.186,-2.227 -1.574,-2.114 -1.371,0.113 -1.302,1.325 -1.303,2.359 v 1.362 c -1.594,0.767 -3.201,0.272 -4.735,0.479 -2.256,0.304 -3.844,1.311 -4.037,3.784 -0.07,0.895 0.185,1.702 1.165,1.952 0.876,0.224 1.498,-0.282 1.639,-1.082 0.326,-1.853 1.623,-1.988 3.101,-1.986 3.236,0.005 6.472,-0.005 9.708,-0.052 1.72,-0.026 2.6,0.693 2.492,2.477 -0.022,0.365 0.068,0.736 0.09,1.105 0.331,5.548 -0.296,6.207 -5.82,5.908 -3.507,-0.189 -7.008,-0.484 -10.515,-0.695 -3.375,-0.203 -4.359,0.612 -4.711,3.92 -0.205,1.927 -0.453,3.864 -0.439,5.795 0.022,3.183 1.341,4.541 4.471,4.848 C -4.064,-0.285 -1.954,-0.153 0,0" style="fill:#1b1464;fill-opacity:1;fill-rule:nonzero;stroke:none" id="path376"/>
        </g>
        <g id="g378" transform="translate(243.8233,122.8652)">
          <path d="m 0,0 c -0.003,0.973 -0.253,1.913 -1.386,1.965 -6.093,0.281 -35.502,0.499 -41.593,0.14 -2.162,-0.128 -3.481,-1.266 -3.526,-3.844 -0.056,-3.197 0.665,-9.231 1.158,-12.325 0.236,-1.481 1.189,-1.862 2.501,-1.855 2.697,0.014 5.394,0.004 8.09,0.004 v 0.039 c 2.697,0 28.705,0.078 31.397,-0.024 2.313,-0.088 3.337,1.034 3.364,3.194 C 0.045,-9.471 0.011,-3.235 0,0" style="fill:#1b1464;fill-opacity:1;fill-rule:nonzero;stroke:none" id="path380"/>
        </g>
        <g id="g382" transform="translate(242.5733,124.6152)">
          <path d="m 0,0 c -0.003,0.973 -0.253,1.913 -1.386,1.965 -6.093,0.281 -35.502,0.499 -41.593,0.14 -2.162,-0.128 -3.481,-1.266 -3.526,-3.844 -0.056,-3.197 0.665,-9.231 1.158,-12.325 0.236,-1.481 1.189,-1.862 2.501,-1.855 2.697,0.014 5.394,0.004 8.09,0.004 v 0.039 c 2.697,0 28.705,0.078 31.397,-0.024 2.313,-0.088 3.337,1.034 3.364,3.194 C 0.045,-9.471 0.011,-3.235 0,0" style="fill:#f7931e;fill-opacity:1;fill-rule:nonzero;stroke:none" id="path384"/>
        </g>
        <g id="g386" transform="translate(227.6469,131.368)">
          <path d="m 0,0 c -4.385,-4.204 -7.655,-9.227 -9.729,-14.866 -0.966,1.557 -1.654,3.23 -2.116,5.096 -0.464,1.873 -3.357,1.079 -2.893,-0.798 0.809,-3.267 2.275,-6.025 4.463,-8.577 0.757,-0.884 2.215,-0.357 2.507,0.662 1.817,6.328 5.137,11.806 9.889,16.362 C 3.518,-0.783 1.394,1.337 0,0" style="fill:#1b1464;fill-opacity:1;fill-rule:nonzero;stroke:none" id="path388"/>
        </g>
        <g id="g390" transform="translate(153.0923,213.9691)">
          <path d="m 0,0 c -0.454,-2.132 -1.27,-3.719 -2.449,-4.763 -0.953,-0.816 -1.815,-1.179 -2.586,-1.043 -0.771,0.181 -1.406,0.816 -1.905,2.087 -0.408,0.997 -0.59,1.995 -0.59,2.948 0,0.816 0.046,1.587 0.227,2.359 0.272,1.315 0.817,2.585 1.724,3.81 1.043,1.587 2.177,2.222 3.356,1.996 C -1.451,7.212 -0.816,6.577 -0.318,5.307 0.091,4.309 0.272,3.311 0.272,2.359 0.227,1.542 0.181,0.726 0,0 m 4.037,8.89 c -1.179,2.042 -2.903,3.266 -5.126,3.72 -0.589,0.136 -1.179,0.181 -1.723,0.181 -3.085,0 -5.579,-1.587 -7.575,-4.808 -1.679,-2.721 -2.495,-5.76 -2.495,-9.072 0,-2.494 0.499,-4.581 1.542,-6.35 1.18,-2.041 2.858,-3.266 5.126,-3.719 0.589,-0.136 1.179,-0.182 1.723,-0.182 3.13,0 5.625,1.588 7.575,4.808 1.679,2.767 2.495,5.806 2.495,9.117 0,2.495 -0.499,4.582 -1.542,6.305 M 17.735,-4.763 c 1.18,1.044 1.996,2.631 2.45,4.763 0.136,0.726 0.227,1.542 0.227,2.359 0,0.952 -0.182,1.95 -0.59,2.948 -0.499,1.27 -1.134,1.95 -1.905,2.087 C 16.738,7.62 15.649,6.985 14.56,5.398 13.698,4.173 13.154,2.903 12.837,1.588 12.655,0.862 12.61,0.045 12.61,-0.771 c 0,-0.953 0.181,-1.951 0.59,-2.948 0.498,-1.271 1.134,-1.951 1.905,-2.087 0.816,-0.181 1.678,0.181 2.63,1.043 m 1.361,17.373 c 2.268,-0.499 3.992,-1.724 5.126,-3.72 1.043,-1.723 1.542,-3.81 1.542,-6.35 0,-3.311 -0.816,-6.35 -2.495,-9.117 -1.95,-3.221 -4.445,-4.808 -7.575,-4.808 -0.544,0 -1.134,0.045 -1.723,0.181 -2.268,0.499 -3.992,1.724 -5.126,3.72 -1.043,1.769 -1.542,3.901 -1.542,6.35 0,3.311 0.816,6.35 2.495,9.072 1.95,3.22 4.49,4.808 7.575,4.808 0.499,0.045 1.088,0 1.723,-0.136 m -62.006,2.313 c -0.907,-0.045 -1.587,-0.408 -2.041,-0.998 -0.454,-0.589 -0.59,-1.315 -0.499,-2.177 1.905,-12.066 3.674,-20.185 5.307,-24.403 0.635,-1.542 1.361,-2.268 2.268,-2.223 1.361,0.091 2.948,1.951 4.853,5.579 0.998,2.042 2.541,5.126 4.627,9.254 1.724,-6.078 4.128,-10.66 7.122,-13.699 0.816,-0.862 1.723,-1.27 2.54,-1.179 0.725,0.045 1.315,0.453 1.723,1.179 0.318,0.59 0.454,1.316 0.409,2.132 -0.182,2.948 0.09,7.031 0.907,12.247 0.816,5.398 1.859,9.299 3.129,11.612 0.273,0.499 0.363,0.953 0.318,1.542 -0.045,0.726 -0.408,1.361 -0.998,1.815 -0.59,0.453 -1.27,0.725 -2.041,0.635 -0.953,-0.046 -1.633,-0.499 -2.132,-1.407 -1.996,-3.628 -3.402,-9.525 -4.264,-17.69 -1.224,3.085 -2.268,6.714 -3.039,10.977 -0.363,1.905 -1.224,2.813 -2.631,2.722 -0.952,-0.046 -1.769,-0.726 -2.404,-1.951 l -7.03,-13.426 c -1.18,4.672 -2.268,10.342 -3.266,17.1 -0.272,1.724 -1.225,2.495 -2.858,2.359 m 65.408,5.67 h -64.047 c -4.037,0 -7.348,-3.311 -7.303,-7.348 v -24.449 c 0,-4.037 3.266,-7.348 7.348,-7.348 h 30.3 l 13.88,-7.711 -3.13,7.711 h 22.952 c 4.037,0 7.348,3.266 7.348,7.348 v 24.449 c -0.045,4.082 -3.311,7.348 -7.348,7.348" style="fill:#7f54b3;fill-opacity:1;fill-rule:evenodd;stroke:none" id="path392"/>
        </g>
        <g id="g394" transform="translate(330.3562,208.526)">
          <path d="M 0,0 V 3.992 H 5.262 V 8.528 H 0 v 4.036 h 6.078 v 4.672 H -5.897 V -4.672 H 6.124 l 0,4.672 z m -19.187,14.606 c -2.132,-2.132 -3.22,-4.808 -3.22,-8.12 0,-3.492 1.043,-6.35 3.175,-8.527 2.132,-2.177 4.898,-3.266 8.346,-3.266 0.998,0 2.132,0.181 3.356,0.499 v 5.216 c -1.134,-0.317 -2.086,-0.499 -2.948,-0.499 -1.724,0 -3.039,0.59 -4.082,1.724 -1.044,1.179 -1.543,2.721 -1.543,4.672 0,1.814 0.499,3.357 1.497,4.49 1.044,1.18 2.268,1.769 3.811,1.769 0.997,0 2.041,-0.181 3.22,-0.498 v 5.216 c -1.043,0.272 -2.268,0.408 -3.493,0.408 -3.22,0.091 -5.942,-0.952 -8.119,-3.084 m -13.472,-6.85 v 5.217 c 1.406,-0.046 2.404,-0.272 3.039,-0.726 0.59,-0.454 0.908,-1.179 0.908,-2.177 -0.046,-1.497 -1.361,-2.268 -3.947,-2.314 m 9.072,-0.362 c 0.59,0.997 0.953,2.041 0.953,3.084 0,2.041 -0.817,3.719 -2.404,4.899 -1.588,1.179 -3.81,1.814 -6.577,1.814 H -38.51 V -4.717 h 5.897 v 9.979 h 0.09 l 4.809,-9.979 h 6.259 l -4.763,9.888 c 1.134,0.499 1.996,1.225 2.631,2.223 M -46.312,3.946 h 5.262 v 4.536 h -5.262 v 4.037 h 6.033 v 4.672 H -52.254 V -4.717 h 11.975 v 4.672 h -6.078 v 3.991 z m -18.234,13.245 -1.179,-4.899 c -0.273,-1.27 -0.59,-2.54 -0.817,-3.855 l -0.635,-3.402 c -0.59,3.402 -1.452,7.439 -2.495,12.201 h -7.439 l -2.812,-21.908 h 5.579 l 1.497,15.105 3.81,-15.105 h 3.992 l 3.629,15.059 1.587,-15.059 h 5.852 l -2.949,21.908 h -7.62 z m -26.762,0 -1.179,-4.899 c -0.273,-1.27 -0.59,-2.54 -0.817,-3.855 l -0.635,-3.402 c -0.59,3.402 -1.451,7.439 -2.495,12.201 h -7.439 l -2.812,-21.908 h 5.579 l 1.497,15.105 3.81,-15.105 h 3.992 l 3.674,15.059 1.588,-15.059 h 5.851 l -2.948,21.908 h -7.666 z M -114.441,1.089 c -0.59,-0.908 -1.452,-1.361 -2.54,-1.361 -1.044,0 -1.815,0.453 -2.359,1.361 -0.544,0.907 -0.817,2.721 -0.817,5.443 0,4.218 1.044,6.305 3.221,6.305 2.268,0 3.402,-2.132 3.402,-6.396 0,-2.676 -0.318,-4.445 -0.907,-5.352 m -2.54,16.692 c -2.949,0 -5.262,-0.998 -6.94,-2.949 -1.679,-1.95 -2.495,-4.717 -2.495,-8.255 0,-3.81 0.816,-6.758 2.495,-8.8 1.633,-2.041 4.037,-3.039 7.212,-3.039 3.039,0 5.397,1.044 7.03,3.039 1.633,2.042 2.495,4.899 2.495,8.573 0,3.674 -0.816,6.487 -2.495,8.482 -1.769,1.996 -4.173,2.949 -7.302,2.949 m -22.317,-3.175 c -2.177,-2.132 -3.221,-4.808 -3.221,-8.12 0,-3.492 1.044,-6.35 3.175,-8.527 2.132,-2.177 4.899,-3.266 8.347,-3.266 0.997,0 2.131,0.181 3.356,0.499 v 5.216 c -1.134,-0.317 -2.086,-0.499 -2.948,-0.499 -1.724,0 -3.039,0.59 -4.083,1.724 -1.043,1.179 -1.542,2.721 -1.542,4.672 0,1.814 0.499,3.357 1.497,4.49 1.043,1.18 2.268,1.769 3.81,1.769 0.998,0 2.041,-0.181 3.221,-0.498 v 5.216 c -1.043,0.272 -2.268,0.408 -3.493,0.408 -3.266,0.091 -5.987,-0.952 -8.119,-3.084" style="fill:#000000;fill-opacity:1;fill-rule:evenodd;stroke:none" id="path396"/>
        </g>
        <g id="g398" transform="translate(111.9816,161.7478)">
          <path d="M 0,0 V 6.687 C 0,7.608 -0.541,8.068 -1.621,8.068 V -1.399 C -0.541,-1.399 0,-0.934 0,0 m 0,12.346 v 4.506 c 0,0.923 -0.541,1.384 -1.621,1.384 V 10.942 C -0.541,10.942 0,11.41 0,12.346 M -7.423,-4.789 v 26.415 h 6.834 c 1.633,0 3.051,-0.372 4.255,-1.114 1.203,-0.743 1.805,-1.932 1.805,-3.565 V 13.281 C 5.471,11.427 4.341,10.119 2.082,9.358 4.464,8.769 5.655,7.497 5.655,5.545 V 0.424 C 5.655,-1.32 5.087,-2.625 3.951,-3.49 2.815,-4.356 1.461,-4.789 -0.11,-4.789 Z" style="fill:#000000;fill-opacity:1;fill-rule:nonzero;stroke:none" id="path400"/>
        </g>
        <g id="g402" transform="translate(134.5158,156.9587)">
          <path d="m 0,0 h -5.25 v 0.719 c -0.677,-0.676 -1.76,-1.014 -3.25,-1.014 -1.035,0 -1.93,0.274 -2.687,0.82 -0.758,0.546 -1.136,1.262 -1.136,2.146 v 18.716 h 5.249 V 3.997 c 0,-0.65 0.307,-0.976 0.922,-0.976 0.601,0 0.902,0.313 0.902,0.939 V 21.387 H 0 Z" style="fill:#000000;fill-opacity:1;fill-rule:nonzero;stroke:none" id="path404"/>
        </g>
        <path d="m 144.34,156.959 h -5.25 v 26.415 h 5.25 z" style="fill:#000000;fill-opacity:1;fill-rule:nonzero;stroke:none" id="path406"/>
        <g id="g408" transform="translate(163.5954,156.9587)">
          <path d="M 0,0 H -6.178 L -9.376,7.725 V 0 h -5.25 v 26.415 h 5.25 V 14.557 l 2.676,6.83 h 5.429 l -3.803,-9.359 z" style="fill:#000000;fill-opacity:1;fill-rule:nonzero;stroke:none" id="path410"/>
        </g>
        <g id="g412" transform="translate(184.8825,161.03)">
          <path d="m 0,0 v 13.097 c 0,0.7 -0.301,1.049 -0.902,1.049 -0.615,0 -0.921,-0.349 -0.921,-1.049 V 0 c 0,-0.725 0.306,-1.087 0.921,-1.087 C -0.301,-1.087 0,-0.725 0,0 m -7.073,0.147 v 12.802 c 0,3.009 2.081,4.513 6.244,4.513 1.609,0 3.024,-0.35 4.246,-1.05 1.222,-0.7 1.833,-1.793 1.833,-3.278 V -0.037 c 0,-2.886 -2.026,-4.329 -6.079,-4.329 -4.163,0 -6.244,1.504 -6.244,4.513" style="fill:#000000;fill-opacity:1;fill-rule:nonzero;stroke:none" id="path414"/>
        </g>
        <g id="g416" transform="translate(204.4513,175.1765)">
          <path d="m 0,0 h -3.002 v -18.218 h -5.25 V 0 h -1.769 v 3.169 h 1.769 c 0,1.879 0.236,3.186 0.709,3.923 0.473,0.737 1.882,1.105 4.228,1.105 H 0 V 5.323 H -1.007 C -1.898,5.323 -2.453,5.154 -2.673,4.817 -2.893,4.479 -3.002,3.93 -3.002,3.169 H 0 Z" style="fill:#000000;fill-opacity:1;fill-rule:nonzero;stroke:none" id="path418"/>
        </g>
        <g id="g420" transform="translate(225.6281,160.9558)">
          <path d="m 0,0 v 13.281 c 0,0.627 -0.301,0.94 -0.902,0.94 -0.615,0 -0.922,-0.325 -0.922,-0.977 V 0 c 0,-0.65 0.307,-0.977 0.922,-0.977 C -0.301,-0.977 0,-0.65 0,0 M 5.25,-3.997 H 1.275 l -0.443,0.719 c -0.899,-0.676 -1.921,-1.014 -3.066,-1.014 -1.343,0 -2.485,0.313 -3.427,0.939 -0.942,0.627 -1.412,1.48 -1.412,2.561 v 15.363 c 0,0.908 0.372,1.63 1.117,2.164 0.745,0.535 1.646,0.801 2.706,0.801 1.453,0 2.536,-0.264 3.25,-0.792 v 5.674 h 5.25 z" style="fill:#000000;fill-opacity:1;fill-rule:nonzero;stroke:none" id="path422"/>
        </g>
        <path d="m 240.573,156.959 h -5.25 v 21.387 h 5.25 z m 0,22.565 h -5.25 v 3.85 h 5.25 z" style="fill:#000000;fill-opacity:1;fill-rule:nonzero;stroke:none" id="path424"/>
        <g id="g426" transform="translate(245.0372,165.5612)">
          <path d="m 0,0 h 5.25 v -4.531 c 0,-0.725 0.295,-1.087 0.884,-1.087 0.59,0 0.885,0.693 0.885,2.081 0,1.806 -0.364,2.972 -1.087,3.5 C 3.192,1.399 1.541,2.403 0.977,2.975 0.411,3.546 0.129,4.402 0.129,5.545 v 2.873 c 0,3.009 2.038,4.513 6.115,4.513 3.967,0 5.95,-1.443 5.95,-4.328 V 4.384 H 7.073 l 0.111,2.56 c 0,1.781 -0.326,2.671 -0.976,2.671 -0.651,0 -0.977,-0.558 -0.977,-1.676 0,-1.154 0.145,-2.026 0.433,-2.616 0.288,-0.589 1.895,-1.602 4.817,-3.039 1.216,-0.872 1.824,-2.026 1.824,-3.463 v -3.205 c 0,-3.01 -2.073,-4.513 -6.217,-4.513 C 2.029,-8.897 0,-7.454 0,-4.568 Z" style="fill:#000000;fill-opacity:1;fill-rule:nonzero;stroke:none" id="path428"/>
        </g>
        <g id="g430" transform="translate(274.0919,168.8767)">
          <path d="m 0,0 h -5.25 v 5.25 c 0,0.7 -0.295,1.05 -0.884,1.05 -0.601,0 -0.902,-0.35 -0.902,-1.05 V -7.847 c 0,-0.724 0.301,-1.087 0.902,-1.087 0.589,0 0.884,0.363 0.884,1.087 v 5.176 H 0 v -5.213 c 0,-2.886 -2.021,-4.329 -6.061,-4.329 -4.15,0 -6.225,1.504 -6.225,4.514 V 5.103 c 0,3.008 2.075,4.512 6.225,4.512 C -2.021,9.615 0,8.173 0,5.287 Z" style="fill:#000000;fill-opacity:1;fill-rule:nonzero;stroke:none" id="path432"/>
        </g>
        <g id="g434" transform="translate(285.6115,161.03)">
          <path d="m 0,0 v 13.097 c 0,0.7 -0.302,1.049 -0.903,1.049 -0.615,0 -0.921,-0.349 -0.921,-1.049 V 0 c 0,-0.725 0.306,-1.087 0.921,-1.087 C -0.302,-1.087 0,-0.725 0,0 m -7.074,0.147 v 12.802 c 0,3.009 2.082,4.513 6.245,4.513 1.608,0 3.023,-0.35 4.246,-1.05 1.222,-0.7 1.833,-1.793 1.833,-3.278 V -0.037 c 0,-2.886 -2.026,-4.329 -6.079,-4.329 -4.163,0 -6.245,1.504 -6.245,4.513" style="fill:#000000;fill-opacity:1;fill-rule:nonzero;stroke:none" id="path436"/>
        </g>
        <g id="g438" transform="translate(307.6105,156.9587)">
          <path d="m 0,0 h -5.25 v 0.719 c -0.677,-0.676 -1.761,-1.014 -3.25,-1.014 -1.034,0 -1.931,0.274 -2.688,0.82 -0.757,0.546 -1.135,1.262 -1.135,2.146 v 18.716 h 5.25 V 3.997 c 0,-0.65 0.306,-0.976 0.921,-0.976 0.601,0 0.902,0.313 0.902,0.939 V 21.387 H 0 Z" style="fill:#000000;fill-opacity:1;fill-rule:nonzero;stroke:none" id="path440"/>
        </g>
        <g id="g442" transform="translate(324.4347,156.9587)">
          <path d="m 0,0 h -5.25 v 17.168 c 0,0.65 -0.304,0.977 -0.912,0.977 -0.608,0 -0.911,-0.314 -0.911,-0.94 V 0 h -5.25 v 21.387 h 5.25 v -0.719 c 0.701,0.577 1.785,0.865 3.25,0.865 0.948,0 1.822,-0.258 2.623,-0.773 C -0.4,20.244 0,19.489 0,18.494 Z" style="fill:#000000;fill-opacity:1;fill-rule:nonzero;stroke:none" id="path444"/>
        </g>
        <g id="g446" transform="translate(339.3615,156.9587)">
          <path d="M 0,0 H -3.315 C -5.686,0 -7.104,0.356 -7.57,1.068 -8.037,1.78 -8.271,3.15 -8.271,5.176 v 13.042 h -2.339 v 3.169 h 2.339 v 4.31 h 5.25 v -4.31 h 2.837 V 18.218 H -3.021 V 5.213 c 0,-0.626 0.187,-1.047 0.562,-1.262 C -2.085,3.736 -1.265,3.629 0,3.629 Z" style="fill:#000000;fill-opacity:1;fill-rule:nonzero;stroke:none" id="path448"/>
        </g>
        <g id="g450" transform="translate(110.1552,344.2381)">
          <path d="m 0,0 c -0.282,-1.327 -0.791,-2.315 -1.525,-2.965 -0.593,-0.508 -1.129,-0.734 -1.609,-0.649 -0.48,0.113 -0.875,0.508 -1.186,1.299 -0.254,0.621 -0.367,1.242 -0.367,1.835 0,0.508 0.028,0.988 0.141,1.468 0.17,0.819 0.509,1.61 1.073,2.372 0.65,0.988 1.355,1.383 2.09,1.242 0.48,-0.113 0.875,-0.508 1.185,-1.299 C 0.056,2.682 0.169,2.061 0.169,1.468 0.141,0.96 0.113,0.452 0,0 M 2.513,5.534 C 1.779,6.804 0.706,7.567 -0.678,7.849 -1.045,7.934 -1.412,7.962 -1.751,7.962 -3.67,7.962 -5.223,6.974 -6.466,4.969 -7.51,3.275 -8.019,1.383 -8.019,-0.678 c 0,-1.553 0.311,-2.851 0.96,-3.952 0.735,-1.271 1.779,-2.033 3.191,-2.316 0.367,-0.084 0.734,-0.113 1.073,-0.113 1.948,0 3.501,0.989 4.715,2.993 1.045,1.723 1.553,3.614 1.553,5.675 0,1.553 -0.311,2.852 -0.96,3.925 m 8.527,-8.499 c 0.734,0.65 1.242,1.638 1.524,2.965 0.085,0.452 0.141,0.96 0.141,1.468 0,0.593 -0.113,1.214 -0.367,1.835 -0.31,0.791 -0.705,1.214 -1.185,1.299 C 10.418,4.743 9.741,4.348 9.063,3.36 8.527,2.598 8.188,1.807 7.99,0.988 7.877,0.536 7.849,0.028 7.849,-0.48 c 0,-0.593 0.113,-1.214 0.367,-1.835 0.311,-0.791 0.706,-1.214 1.186,-1.299 0.508,-0.113 1.045,0.113 1.638,0.649 m 0.847,10.814 c 1.411,-0.31 2.484,-1.073 3.19,-2.315 0.649,-1.073 0.96,-2.372 0.96,-3.953 0,-2.061 -0.508,-3.953 -1.553,-5.675 -1.214,-2.005 -2.767,-2.993 -4.715,-2.993 -0.339,0 -0.706,0.028 -1.073,0.113 -1.412,0.311 -2.484,1.073 -3.19,2.315 -0.65,1.101 -0.96,2.428 -0.96,3.953 0,2.061 0.508,3.953 1.553,5.647 1.214,2.005 2.795,2.993 4.715,2.993 0.31,0.028 0.677,0 1.073,-0.085 m -38.597,1.44 c -0.564,-0.028 -0.988,-0.254 -1.27,-0.621 -0.282,-0.367 -0.367,-0.819 -0.311,-1.355 1.186,-7.511 2.287,-12.565 3.304,-15.19 0.395,-0.96 0.847,-1.412 1.411,-1.384 0.847,0.057 1.836,1.214 3.021,3.473 0.622,1.271 1.582,3.19 2.88,5.76 1.073,-3.784 2.57,-6.635 4.433,-8.527 0.508,-0.536 1.073,-0.791 1.581,-0.734 0.452,0.028 0.819,0.282 1.073,0.734 0.198,0.367 0.283,0.819 0.254,1.327 -0.113,1.835 0.057,4.376 0.565,7.623 0.508,3.36 1.158,5.788 1.948,7.228 0.17,0.311 0.226,0.593 0.198,0.96 -0.028,0.452 -0.254,0.847 -0.621,1.13 -0.367,0.282 -0.791,0.451 -1.271,0.395 -0.593,-0.028 -1.016,-0.311 -1.327,-0.875 -1.242,-2.259 -2.118,-5.93 -2.654,-11.012 -0.762,1.92 -1.412,4.179 -1.892,6.833 -0.226,1.186 -0.762,1.75 -1.637,1.694 -0.593,-0.028 -1.101,-0.452 -1.497,-1.214 l -4.376,-8.357 c -0.734,2.908 -1.412,6.437 -2.033,10.644 -0.169,1.073 -0.762,1.553 -1.779,1.468 m 40.714,3.529 h -39.867 c -2.512,0 -4.574,-2.061 -4.545,-4.574 V -6.974 c 0,-2.513 2.033,-4.574 4.574,-4.574 h 18.86 l 8.64,-4.8 -1.948,4.8 h 14.286 c 2.513,0 4.574,2.033 4.574,4.574 V 8.244 c -0.028,2.541 -2.061,4.574 -4.574,4.574" style="fill:#f7931e;fill-opacity:1;fill-rule:evenodd;stroke:none" id="path452"/>
        </g>
      </g>
    </g>
  </g>
</svg>